<svg width="38" height="72" viewBox="0 0 38 72" fill="none" xmlns="http://www.w3.org/2000/svg">
<g filter="url(#filter0_d_152_763)">
<g clip-path="url(#clip0_152_763)">
<rect x="3" y="2.2998" width="32" height="65" rx="2" fill="white"/>
<rect width="32" height="32" transform="translate(3 2.2998)" fill="white"/>
<g clip-path="url(#clip1_152_763)">
<g clip-path="url(#clip2_152_763)">
<g clip-path="url(#clip3_152_763)">
<path d="M28 16.2998H21V9.2998H17V16.2998H10V20.2998H17V27.2998H21V20.2998H28V16.2998Z" fill="#666666"/>
</g>
</g>
</g>
<rect width="24" height="1" transform="translate(8 34.2998)" fill="#E6E6E6"/>
<rect width="32" height="32" transform="translate(3 35.2998)" fill="white"/>
<g clip-path="url(#clip4_152_763)">
<g clip-path="url(#clip5_152_763)">
<path d="M10 49.2998H28V53.2998H10V49.2998Z" fill="#666666"/>
</g>
</g>
</g>
</g>
<defs>
<filter id="filter0_d_152_763" x="0" y="0.299805" width="38" height="71" filterUnits="userSpaceOnUse" color-interpolation-filters="sRGB">
<feFlood flood-opacity="0" result="BackgroundImageFix"/>
<feColorMatrix in="SourceAlpha" type="matrix" values="0 0 0 0 0 0 0 0 0 0 0 0 0 0 0 0 0 0 127 0" result="hardAlpha"/>
<feMorphology radius="1" operator="erode" in="SourceAlpha" result="effect1_dropShadow_152_763"/>
<feOffset dy="1"/>
<feGaussianBlur stdDeviation="2"/>
<feComposite in2="hardAlpha" operator="out"/>
<feColorMatrix type="matrix" values="0 0 0 0 0 0 0 0 0 0 0 0 0 0 0 0 0 0 0.3 0"/>
<feBlend mode="normal" in2="BackgroundImageFix" result="effect1_dropShadow_152_763"/>
<feBlend mode="normal" in="SourceGraphic" in2="effect1_dropShadow_152_763" result="shape"/>
</filter>
<clipPath id="clip0_152_763">
<rect x="3" y="2.2998" width="32" height="65" rx="2" fill="white"/>
</clipPath>
<clipPath id="clip1_152_763">
<rect width="18" height="18" fill="white" transform="translate(10 9.2998)"/>
</clipPath>
<clipPath id="clip2_152_763">
<rect width="18" height="18" fill="white" transform="translate(10 9.2998)"/>
</clipPath>
<clipPath id="clip3_152_763">
<rect width="18" height="18" fill="white" transform="translate(10 9.2998)"/>
</clipPath>
<clipPath id="clip4_152_763">
<rect width="18" height="18" fill="white" transform="translate(10 42.2998)"/>
</clipPath>
<clipPath id="clip5_152_763">
<rect width="18" height="18" fill="white" transform="translate(10 42.2998)"/>
</clipPath>
</defs>
</svg>
