<svg width="38" height="39" viewBox="0 0 38 39" fill="none" xmlns="http://www.w3.org/2000/svg">
<g filter="url(#filter0_d_152_753)">
<rect x="3" y="2.2998" width="32" height="32" rx="2" fill="white"/>
<g clip-path="url(#clip0_152_753)">
<g clip-path="url(#clip1_152_753)">
<g clip-path="url(#clip2_152_753)">
<path opacity="0.7" d="M23.028 33.3788H18.6859L18.528 31.0893L18.3702 33.3788H14.028L13.8702 23.2735L13.2386 24.8524C13.1267 25.1401 12.9089 25.374 12.6299 25.5061C12.351 25.6383 12.032 25.6586 11.7386 25.563L10.7912 25.2472C10.4949 25.1426 10.2489 24.93 10.1025 24.6519C9.95617 24.3738 9.92017 24.0507 10.0017 23.7472V23.6682C10.2386 22.9577 12.4491 14.8261 12.4491 14.8261C12.5535 14.4086 12.7836 14.0332 13.1084 13.7508C13.4332 13.4684 13.8369 13.2926 14.2649 13.2472L14.7386 12.8524C13.9361 12.1047 13.3769 11.133 13.1336 10.0634C12.8903 8.99385 12.9741 7.87586 13.3741 6.85453C13.7741 5.83319 14.4719 4.95568 15.3769 4.33588C16.2818 3.71608 17.3522 3.38261 18.4491 3.37876C19.1667 3.37001 19.8788 3.50524 20.5432 3.77644C21.2077 4.04764 21.811 4.44931 22.3175 4.9577C23.3298 5.99086 23.8967 7.37971 23.8965 8.82612C23.903 9.56955 23.7515 10.3059 23.4521 10.9864C23.1527 11.6669 22.7121 12.276 22.1596 12.7735L22.7123 13.1682C23.1499 13.2113 23.5646 13.3848 23.9024 13.6664C24.2402 13.9479 24.4857 14.3245 24.607 14.7472C24.607 14.7472 26.8965 23.5893 26.8965 23.6682C26.9921 23.9617 26.9718 24.2806 26.8396 24.5596C26.7075 24.8385 26.4736 25.0563 26.1859 25.1682L25.1596 25.484C24.866 25.5617 24.5543 25.5329 24.2798 25.4029C24.0052 25.2729 23.7856 25.0499 23.6596 24.7735L23.107 23.3524L23.028 33.3788ZM20.1859 31.7998H21.528L21.6859 19.3261L23.1859 19.0893L25.0807 24.063L25.3175 23.984C25.1596 23.3524 24.6859 21.4577 23.107 15.3788C23.0839 15.2693 23.0247 15.1708 22.9387 15.0991C22.8527 15.0275 22.7452 14.9869 22.6333 14.984H22.1596L21.2912 14.2735H19.7912L19.5544 12.6945C20.358 12.4644 21.0637 11.9766 21.5629 11.3062C22.0622 10.6358 22.3273 9.81986 22.3175 8.98402C22.3301 8.48581 22.2439 7.99004 22.0638 7.52534C21.8837 7.06063 21.6134 6.6362 21.2684 6.27653C20.9235 5.91687 20.5106 5.6291 20.0538 5.42984C19.597 5.23058 19.1053 5.12378 18.607 5.1156H18.4491C17.5179 5.11285 16.617 5.44611 15.9117 6.05417C15.2064 6.66224 14.7442 7.5043 14.6098 8.42576C14.4754 9.34722 14.6779 10.2862 15.1802 11.0704C15.6824 11.8546 16.4506 12.4312 17.3438 12.6945L17.107 14.2735H15.607L14.8175 14.984H14.3438C14.2359 14.9991 14.1344 15.0441 14.0507 15.1138C13.967 15.1836 13.9044 15.2753 13.8702 15.3788C12.2912 21.2998 11.7386 23.2735 11.5017 23.984L11.7386 24.063L13.7123 19.0893L15.2123 19.3261L15.3702 31.7998H16.6333L17.107 25.1682C17.1306 24.8694 17.2653 24.5902 17.4845 24.3856C17.7036 24.1811 17.9914 24.066 18.2912 24.063C18.5921 24.0623 18.8819 24.1762 19.1018 24.3814C19.3218 24.5867 19.4554 24.868 19.4754 25.1682L20.1859 31.7998Z" fill="#333333"/>
<path d="M14.5801 14.0366L15.4485 13.3261H21.6064L22.5538 14.0366" fill="#CE592C"/>
<path opacity="0.5" d="M18.5281 13.8787C19.7053 13.8787 20.6596 13.7727 20.6596 13.6419C20.6596 13.5111 19.7053 13.4051 18.5281 13.4051C17.3508 13.4051 16.3965 13.5111 16.3965 13.6419C16.3965 13.7727 17.3508 13.8787 18.5281 13.8787Z" fill="#CE592C"/>
<path d="M26.1855 23.9051L23.8961 14.984C23.8116 14.7135 23.6441 14.4764 23.4174 14.3064C23.1907 14.1364 22.9162 14.042 22.6329 14.0367H14.4224C14.142 14.0609 13.8764 14.1733 13.6637 14.3576C13.451 14.542 13.3021 14.7889 13.2382 15.063L10.7908 23.984C10.7617 24.0893 10.7693 24.2014 10.8124 24.3018C10.8554 24.4023 10.9313 24.4851 11.0276 24.5367L11.8961 24.8524C12.0014 24.8815 12.1134 24.8739 12.2139 24.8309C12.3143 24.7878 12.3971 24.7119 12.4487 24.6156L14.5803 19.3261L14.7382 32.5893H17.5803L18.0539 25.2472C18.0507 25.1984 18.0572 25.1495 18.0729 25.1033C18.0887 25.057 18.1134 25.0143 18.1456 24.9777C18.1779 24.941 18.2171 24.911 18.261 24.8896C18.3049 24.8681 18.3526 24.8555 18.4013 24.8524H18.4487C18.7645 24.8524 18.7645 25.0103 18.8434 25.2472L19.3171 32.5893H22.1592L22.3171 19.3261L24.2908 24.5367C24.3282 24.6376 24.4038 24.7199 24.5012 24.7657C24.5987 24.8114 24.7103 24.8171 24.8118 24.7814L25.7592 24.4656C25.8233 24.4595 25.8853 24.4396 25.9411 24.4075C25.9968 24.3753 26.0451 24.3316 26.0825 24.2792C26.1199 24.2268 26.1456 24.167 26.158 24.1038C26.1703 24.0407 26.1689 23.9756 26.1539 23.913L26.1855 23.9051Z" fill="#FDBF2D"/>
<path opacity="0.6" d="M15.4473 14.0367L18.5262 19.3261L21.6052 14.0367" fill="#CF572E"/>
<path d="M18.527 13.484C21.0995 13.484 23.1849 11.3986 23.1849 8.82611C23.1849 6.25362 21.0995 4.16821 18.527 4.16821C15.9546 4.16821 13.8691 6.25362 13.8691 8.82611C13.8691 11.3986 15.9546 13.484 18.527 13.484Z" fill="#FDBF2D"/>
</g>
</g>
</g>
</g>
<defs>
<filter id="filter0_d_152_753" x="0" y="0.299805" width="38" height="38" filterUnits="userSpaceOnUse" color-interpolation-filters="sRGB">
<feFlood flood-opacity="0" result="BackgroundImageFix"/>
<feColorMatrix in="SourceAlpha" type="matrix" values="0 0 0 0 0 0 0 0 0 0 0 0 0 0 0 0 0 0 127 0" result="hardAlpha"/>
<feMorphology radius="1" operator="erode" in="SourceAlpha" result="effect1_dropShadow_152_753"/>
<feOffset dy="1"/>
<feGaussianBlur stdDeviation="2"/>
<feComposite in2="hardAlpha" operator="out"/>
<feColorMatrix type="matrix" values="0 0 0 0 0 0 0 0 0 0 0 0 0 0 0 0 0 0 0.3 0"/>
<feBlend mode="normal" in2="BackgroundImageFix" result="effect1_dropShadow_152_753"/>
<feBlend mode="normal" in="SourceGraphic" in2="effect1_dropShadow_152_753" result="shape"/>
</filter>
<clipPath id="clip0_152_753">
<rect width="30" height="30" fill="white" transform="translate(4 3.2998)"/>
</clipPath>
<clipPath id="clip1_152_753">
<rect width="30" height="30" fill="white" transform="translate(4 3.2998)"/>
</clipPath>
<clipPath id="clip2_152_753">
<rect width="18.1579" height="30" fill="white" transform="translate(9.92188 3.2998)"/>
</clipPath>
</defs>
</svg>
