<svg width="66" height="27" viewBox="0 0 66 27" fill="none" xmlns="http://www.w3.org/2000/svg">
<g clip-path="url(#clip0_152_800)">
<g clip-path="url(#clip1_152_800)">
<g opacity="0.6">
<path d="M17.7315 6.87704L18.2167 6.39189L17.7219 5.91662C16.4994 4.74237 14.8514 3.83688 12.5586 3.83688C8.42216 3.83688 4.93555 7.20359 4.93555 11.3641C4.93555 15.5248 8.42216 18.8914 12.5586 18.8914C14.7734 18.8914 16.4823 18.1573 17.8242 16.7685C19.2313 15.3583 19.6367 13.4187 19.6367 11.9164C19.6367 11.4473 19.5972 10.9971 19.5206 10.6138L19.4125 10.0733H11.8862V13.2957H16.2166C16.062 13.8305 15.8292 14.2179 15.545 14.5025C14.9812 15.0596 14.1264 15.6765 12.5586 15.6765C10.1805 15.6765 8.31253 13.7657 8.31253 11.3641C8.31253 8.96262 10.1805 7.05189 12.5586 7.05189C13.8462 7.05189 14.7777 7.55459 15.4787 8.2105L15.9536 8.65495L16.4136 8.19499L17.7315 6.87704Z" fill="white" stroke="white" stroke-width="1.34483"/>
<path d="M24.3617 18.884C27.1312 18.884 29.3856 16.7151 29.3856 13.8013C29.3856 10.8713 27.1297 8.71851 24.3617 8.71851C21.5938 8.71851 19.3379 10.8713 19.3379 13.8013C19.3379 16.7151 21.5923 18.884 24.3617 18.884ZM24.3617 11.8009C25.2708 11.8009 26.1338 12.5513 26.1338 13.8013C26.1338 15.039 25.2684 15.8016 24.3617 15.8016C23.4563 15.8016 22.5897 15.0329 22.5897 13.8013C22.5897 12.5574 23.4539 11.8009 24.3617 11.8009Z" fill="white" stroke="white" stroke-width="1.34483"/>
<path d="M34.121 15.8016H34.1172C33.2118 15.8016 32.3451 15.0329 32.3451 13.8013C32.3451 12.5574 33.2094 11.8009 34.1172 11.8009C35.0262 11.8009 35.8892 12.5513 35.8892 13.8013C35.8892 15.0426 35.0214 15.8067 34.121 15.8016ZM34.1099 18.884C36.8793 18.884 39.1337 16.7151 39.1337 13.8013C39.1337 10.8713 36.8778 8.71851 34.1099 8.71851C31.3418 8.71851 29.0859 10.8713 29.0859 13.8013C29.0859 16.7158 31.3485 18.884 34.1099 18.884Z" fill="white" stroke="white" stroke-width="1.34483"/>
<path d="M48.6467 9.65592V8.98353H45.4611V9.09339C44.968 8.85869 44.3833 8.71111 43.7406 8.71111C41.1552 8.71111 38.8418 10.9686 38.8418 13.816C38.8418 15.7229 39.8854 17.3555 41.3551 18.2214L41.2961 18.2459L39.6101 18.9454L38.9888 19.203L39.2467 19.8242C39.8051 21.1693 41.2887 22.8453 43.7774 22.8453C45.042 22.8453 46.2761 22.4736 47.1969 21.5818C48.1232 20.6844 48.6467 19.3435 48.6467 17.5784V9.65592ZM42.1741 18.6074C42.6719 18.7872 43.2001 18.884 43.7406 18.884C44.3509 18.884 44.9113 18.7525 45.3911 18.5352C45.3126 18.884 45.1744 19.1368 45.0099 19.3136C44.7578 19.5845 44.3642 19.7628 43.7774 19.7628C42.9598 19.7628 42.4146 19.1822 42.1741 18.6074ZM43.9099 11.8009C44.7815 11.8009 45.5936 12.5615 45.5936 13.8234C45.5936 15.0602 44.7907 15.809 43.9099 15.809C42.975 15.809 42.1231 15.0255 42.1231 13.8234C42.1231 12.5902 42.9833 11.8009 43.9099 11.8009ZM52.0407 4.98052V4.30811H48.7595V18.6264H52.0407V4.98052Z" fill="white" stroke="white" stroke-width="1.34483"/>
<path d="M59.3695 14.6997L58.8152 14.3301L58.4405 14.881C58.0315 15.4825 57.5348 15.8163 56.8245 15.8163C56.4384 15.8163 56.1436 15.7284 55.9103 15.5812C55.8475 15.5417 55.7863 15.496 55.7269 15.4435L60.8371 13.3254L61.449 13.0717L61.2046 12.456L61.0083 11.9617C60.6023 10.8791 59.3139 8.72586 56.6037 8.72586C53.929 8.72586 51.8301 10.8449 51.8301 13.8087C51.8301 16.6306 53.9121 18.8915 56.8171 18.8915C59.152 18.8915 60.503 17.4578 61.0563 16.6361L61.4338 16.0758L60.8716 15.701L59.3695 14.6997ZM57.0684 11.8215L55.3333 12.54C55.6735 12.0252 56.2394 11.7715 56.6699 11.7715C56.8181 11.7715 56.9511 11.7901 57.0684 11.8215Z" fill="white" stroke="white" stroke-width="1.34483"/>
</g>
<path d="M12.558 18.219C8.78084 18.219 5.60742 15.1413 5.60742 11.3641C5.60742 7.587 8.78084 4.50931 12.558 4.50931C14.6491 4.50931 16.1364 5.3266 17.2555 6.40158L15.9376 7.71954C15.135 6.96852 14.0453 6.37949 12.558 6.37949C9.79692 6.37949 7.63958 8.60308 7.63958 11.3641C7.63958 14.1253 9.79692 16.3489 12.558 16.3489C14.3472 16.3489 15.3633 15.6273 16.0186 14.9794C16.556 14.4418 16.9021 13.6761 17.0346 12.6233H12.558V10.7457H18.8606C18.9269 11.077 18.9637 11.482 18.9637 11.9164C18.9637 13.3227 18.5809 15.0604 17.3439 16.2973C16.1364 17.549 14.6049 18.219 12.558 18.219Z" fill="#4285F4"/>
<path d="M28.7127 13.8013C28.7127 16.3415 26.7615 18.2117 24.3612 18.2117C21.9609 18.2117 20.0098 16.3415 20.0098 13.8013C20.0098 11.2463 21.9609 9.39093 24.3612 9.39093C26.7615 9.39093 28.7127 11.2463 28.7127 13.8013ZM26.8057 13.8013C26.8057 12.2109 25.6718 11.1285 24.3612 11.1285C23.0506 11.1285 21.9167 12.2183 21.9167 13.8013C21.9167 15.3696 23.0506 16.474 24.3612 16.474C25.6718 16.474 26.8057 15.3769 26.8057 13.8013Z" fill="#E94235"/>
<path d="M38.4607 13.8013C38.4607 16.3415 36.5096 18.2117 34.1093 18.2117C31.7163 18.2117 29.7578 16.3415 29.7578 13.8013C29.7578 11.2463 31.709 9.39093 34.1093 9.39093C36.5096 9.39093 38.4607 11.2463 38.4607 13.8013ZM36.5611 13.8013C36.5611 12.2109 35.4272 11.1285 34.1167 11.1285C32.8061 11.1285 31.6721 12.2183 31.6721 13.8013C31.6721 15.3696 32.8061 16.474 34.1167 16.474C35.4272 16.4814 36.5611 15.3769 36.5611 13.8013Z" fill="#FABB05"/>
<path d="M47.9737 9.65595V17.5784C47.9737 20.8403 46.052 22.1729 43.7769 22.1729C41.6342 22.1729 40.3531 20.7371 39.8671 19.5664L41.5532 18.8669C41.8551 19.5885 42.5914 20.4353 43.7769 20.4353C45.2347 20.4353 46.133 19.5297 46.133 17.8435V17.2103H46.0667C45.6323 17.7478 44.7929 18.2117 43.74 18.2117C41.5312 18.2117 39.5137 16.29 39.5137 13.816C39.5137 11.3274 41.5385 9.38358 43.74 9.38358C44.7929 9.38358 45.6323 9.8548 46.0667 10.3701H46.133V9.65595H47.9737ZM46.2655 13.8234C46.2655 12.2698 45.2273 11.1285 43.9094 11.1285C42.5693 11.1285 41.4501 12.2624 41.4501 13.8234C41.4501 15.3622 42.5693 16.4814 43.9094 16.4814C45.2273 16.4814 46.2655 15.3622 46.2655 13.8234Z" fill="#4285F4"/>
<path d="M51.3681 4.98056V17.954H49.4316V4.98056H51.3681Z" fill="#34A853"/>
<path d="M58.996 15.2591L60.4981 16.2605C60.0121 16.9821 58.8415 18.2191 56.8166 18.2191C54.3059 18.2191 52.502 16.2826 52.502 13.8087C52.502 11.1874 54.328 9.39828 56.6031 9.39828C58.8929 9.39828 60.0121 11.2169 60.3803 12.2036L60.5791 12.7042L54.6814 15.1488C55.1306 16.0323 55.8374 16.4888 56.824 16.4888C57.8106 16.4888 58.4954 15.9955 58.996 15.2591ZM54.3648 13.6687L58.3113 12.0342C58.0904 11.482 57.4425 11.0991 56.6694 11.0991C55.6827 11.0991 54.3133 11.968 54.3648 13.6687Z" fill="#E94235"/>
</g>
</g>
<defs>
<clipPath id="clip0_152_800">
<rect width="66" height="26" fill="white" transform="translate(0 0.299805)"/>
</clipPath>
<clipPath id="clip1_152_800">
<rect width="66" height="26" fill="white" transform="translate(0 0.299805)"/>
</clipPath>
</defs>
</svg>
