<svg width="64" height="65" viewBox="0 0 64 65" fill="none" xmlns="http://www.w3.org/2000/svg">
<g clip-path="url(#clip0_152_1285)">
<path fill-rule="evenodd" clip-rule="evenodd" d="M32.0009 2.78491C15.4793 2.78491 2.08594 16.1783 2.08594 32.6999C2.08594 47.8806 13.3935 60.4202 28.0455 62.3558C29.3398 62.5267 30.6601 62.615 32.0011 62.615C33.5016 62.615 34.9762 62.5044 36.4173 62.2911C37.9516 62.0641 39.4478 61.7206 40.8967 61.27C45.6461 59.7927 49.8882 57.1639 53.2957 53.7106L53.3055 53.7006C58.6299 48.2995 61.9159 40.8834 61.9159 32.6999C61.9159 16.1783 48.5226 2.78491 32.0009 2.78491ZM15.3311 56.0345C14.6067 55.5159 13.9074 54.9646 13.2353 54.3824C12.7387 53.9523 12.257 53.5053 11.7911 53.0424C12.7849 42.7566 21.4542 34.7149 32.0011 34.7149C42.5479 34.7149 51.2171 42.7564 52.2111 53.0421C47.0273 58.1926 39.8857 61.3749 32.0009 61.3749C25.7838 61.3749 20.0287 59.3964 15.3311 56.0345ZM60.6759 32.6999C60.6759 40.0741 57.8924 46.7981 53.3186 51.8786C52.0046 42.8843 45.134 35.694 36.3034 33.9044C40.6813 32.1861 43.7809 27.9224 43.7809 22.9349C43.7809 16.429 38.5068 11.1549 32.0009 11.1549C25.495 11.1549 20.2209 16.429 20.2209 22.9349C20.2209 27.9226 23.3206 32.1862 27.6986 33.9046C18.868 35.6941 11.9974 42.8845 10.6835 51.879C6.1096 46.7983 3.32594 40.0742 3.32594 32.6999C3.32594 16.8631 16.1642 4.02491 32.0009 4.02491C47.8377 4.02491 60.6759 16.8631 60.6759 32.6999ZM21.6396 20.9922C22.5513 16.0992 26.8435 12.3949 32.0009 12.3949C34.1883 12.3949 36.22 13.0612 37.9043 14.202C35.1489 17.8197 31.0118 19.5299 27.4563 20.3263C25.6309 20.7353 23.9791 20.8986 22.7843 20.9593C22.3308 20.9824 21.944 20.9907 21.6396 20.9922ZM21.484 22.2323C21.4688 22.4646 21.4609 22.6988 21.4609 22.9349C21.4609 28.756 26.1799 33.4749 32.0009 33.4749C37.3788 33.4749 41.816 29.4473 42.4605 24.2437C39.9088 24.5028 37.5703 23.4627 35.8653 22.3597C34.9128 21.7435 34.1339 21.0924 33.593 20.5959C33.3222 20.3472 33.1096 20.136 32.9638 19.9857C32.8908 19.9106 32.8343 19.8504 32.7955 19.8084L32.7945 19.8074C31.0817 20.6322 29.3317 21.177 27.7274 21.5363C25.8178 21.9641 24.0941 22.1344 22.8473 22.1977C22.2902 22.2261 21.8274 22.2332 21.484 22.2323ZM33.9392 19.2093C34.0645 19.3358 34.2301 19.4974 34.4316 19.6825C34.9354 20.145 35.6592 20.7494 36.5388 21.3184C38.1934 22.3889 40.3175 23.2824 42.5408 22.9858L42.5409 22.9349C42.5409 19.7467 41.1254 16.8892 38.8885 14.9564C37.4819 16.8024 35.7559 18.1806 33.9392 19.2093ZM31.6909 42.3099H40.6809C41.3658 42.3099 41.9209 42.8651 41.9209 43.5499V46.9599C41.9209 47.6448 41.3658 48.1999 40.6809 48.1999H31.6909C31.0061 48.1999 30.4509 47.6448 30.4509 46.9599V43.5499C30.4509 42.8651 31.0061 42.3099 31.6909 42.3099ZM29.2109 43.5499C29.2109 42.1802 30.3212 41.0699 31.6909 41.0699H40.6809C42.0506 41.0699 43.1609 42.1802 43.1609 43.5499V46.9599C43.1609 48.3296 42.0506 49.4399 40.6809 49.4399H31.6909C30.3212 49.4399 29.2109 48.3296 29.2109 46.9599V43.5499Z" fill="#3D3B40"/>
</g>
<defs>
<clipPath id="clip0_152_1285">
<rect width="64" height="64" fill="white" transform="translate(0 0.699951)"/>
</clipPath>
</defs>
</svg>
