<svg width="16" height="17" viewBox="0 0 16 17" fill="none" xmlns="http://www.w3.org/2000/svg">
<path fill-rule="evenodd" clip-rule="evenodd" d="M4.64689 1.44578C4.69334 1.39922 4.74851 1.36228 4.80926 1.33707C4.87001 1.31186 4.93513 1.29889 5.00089 1.29889C5.06666 1.29889 5.13178 1.31186 5.19253 1.33707C5.25327 1.36228 5.30845 1.39922 5.35489 1.44578L11.8549 7.94578C11.9015 7.99223 11.9384 8.0474 11.9636 8.10815C11.9888 8.16889 12.0018 8.23402 12.0018 8.29978C12.0018 8.36555 11.9888 8.43067 11.9636 8.49142C11.9384 8.55216 11.9015 8.60734 11.8549 8.65378L5.35489 15.1538C5.30841 15.2003 5.25322 15.2371 5.19248 15.2623C5.13174 15.2875 5.06664 15.3004 5.00089 15.3004C4.93515 15.3004 4.87005 15.2875 4.80931 15.2623C4.74857 15.2371 4.69338 15.2003 4.64689 15.1538C4.60041 15.1073 4.56353 15.0521 4.53837 14.9914C4.51321 14.9306 4.50026 14.8655 4.50026 14.7998C4.50026 14.734 4.51321 14.6689 4.53837 14.6082C4.56353 14.5475 4.60041 14.4923 4.64689 14.4458L10.7939 8.29978L4.64689 2.15378C4.60033 2.10734 4.56339 2.05216 4.53818 1.99142C4.51297 1.93067 4.5 1.86555 4.5 1.79978C4.5 1.73402 4.51297 1.66889 4.53818 1.60815C4.56339 1.5474 4.60033 1.49223 4.64689 1.44578Z" fill="#00639E"/>
</svg>
