<svg width="16" height="17" viewBox="0 0 16 17" fill="none" xmlns="http://www.w3.org/2000/svg">
<path fill-rule="evenodd" clip-rule="evenodd" d="M3.30531 14.5389C3.27524 14.724 3.29783 14.9139 3.3705 15.0868C3.44318 15.2596 3.563 15.4086 3.7163 15.5167C3.8696 15.6247 4.05019 15.6874 4.23745 15.6977C4.42471 15.708 4.61109 15.6655 4.77531 15.5749L8.00031 13.7929L11.2243 15.5749C11.3886 15.6658 11.5751 15.7086 11.7625 15.6984C11.9499 15.6882 12.1307 15.6255 12.2842 15.5174C12.4376 15.4094 12.5576 15.2603 12.6303 15.0872C12.703 14.9142 12.7255 14.7242 12.6953 14.5389L12.0683 10.6949L14.7163 7.98191C14.8447 7.85031 14.9344 7.68584 14.9754 7.5066C15.0164 7.32736 15.0072 7.14027 14.9489 6.96591C14.8905 6.79155 14.7851 6.63667 14.6444 6.51829C14.5037 6.39991 14.3331 6.32261 14.1513 6.29491L10.5333 5.74191L8.90531 2.27491C8.82455 2.10311 8.69657 1.95785 8.53631 1.8561C8.37605 1.75435 8.19014 1.70032 8.00031 1.70032C7.81048 1.70032 7.62457 1.75435 7.46431 1.8561C7.30405 1.95785 7.17607 2.10311 7.09531 2.27491L5.46731 5.74191L1.84931 6.29491C1.66753 6.32261 1.49691 6.39991 1.35621 6.51829C1.2155 6.63667 1.11016 6.79155 1.05177 6.96591C0.993372 7.14027 0.984182 7.32736 1.02521 7.5066C1.06623 7.68584 1.15589 7.85031 1.28431 7.98191L3.93231 10.6949L3.30531 14.5389Z" fill="#FCCA36"/>
</svg>
