<svg width="17" height="17" viewBox="0 0 17 17" fill="none" xmlns="http://www.w3.org/2000/svg">
<path fill-rule="evenodd" clip-rule="evenodd" d="M4.17725 15.3181C4.02374 15.2099 3.90377 15.0608 3.83108 14.8876C3.7584 14.7145 3.73593 14.5244 3.76625 14.3391L4.39325 10.4951L1.74525 7.78208C1.61682 7.65048 1.52717 7.48601 1.48614 7.30677C1.44512 7.12753 1.45431 6.94044 1.5127 6.76608C1.5711 6.59172 1.67644 6.43684 1.81714 6.31846C1.95785 6.20008 2.12847 6.12279 2.31025 6.09508L5.92825 5.54208L7.55625 2.07508C7.637 1.90328 7.76499 1.75802 7.92525 1.65627C8.08551 1.55452 8.27142 1.50049 8.46125 1.50049C8.65108 1.50049 8.83699 1.55452 8.99725 1.65627C9.15751 1.75802 9.28549 1.90328 9.36625 2.07508L10.9942 5.54208L14.6122 6.09508C14.794 6.12279 14.9646 6.20008 15.1054 6.31846C15.2461 6.43684 15.3514 6.59172 15.4098 6.76608C15.4682 6.94044 15.4774 7.12753 15.4364 7.30677C15.3953 7.48601 15.3057 7.65048 15.1772 7.78208L12.5292 10.4951L13.1562 14.3391C13.1863 14.5242 13.1637 14.714 13.0911 14.8869C13.0184 15.0598 12.8986 15.2088 12.7453 15.3168C12.592 15.4249 12.4114 15.4876 12.2241 15.4979C12.0369 15.5082 11.8505 15.4656 11.6862 15.3751L8.46125 13.5931L5.23725 15.3751C5.07303 15.466 4.88652 15.5089 4.69906 15.4988C4.5116 15.4888 4.33077 15.4261 4.17725 15.3181ZM8.46125 12.4501L11.0562 13.8841L12.1692 14.5001L11.9642 13.2441L11.4612 10.1581L13.6022 7.96408L14.4612 7.08408L13.2452 6.89808L10.3152 6.45008L9.01325 3.67708L8.46125 2.50008L7.90925 3.67708L6.60725 6.45008L3.67725 6.89808L2.46125 7.08408L3.32025 7.96408L5.46125 10.1581L4.95825 13.2441L4.75325 14.5001L5.86625 13.8841L8.46125 12.4501Z" fill="#3D3B40"/>
</svg>
