<svg width="16" height="17" viewBox="0 0 16 17" fill="none" xmlns="http://www.w3.org/2000/svg">
<path fill-rule="evenodd" clip-rule="evenodd" d="M2 4.90015C2.26522 4.90015 2.51957 4.79479 2.70711 4.60725C2.89464 4.41972 3 4.16536 3 3.90015C3 3.63493 2.89464 3.38058 2.70711 3.19304C2.51957 3.0055 2.26522 2.90015 2 2.90015C1.73478 2.90015 1.48043 3.0055 1.29289 3.19304C1.10536 3.38058 1 3.63493 1 3.90015C1 4.16536 1.10536 4.41972 1.29289 4.60725C1.48043 4.79479 1.73478 4.90015 2 4.90015ZM5.5 3.40015C5.36739 3.40015 5.24021 3.45283 5.14645 3.54659C5.05268 3.64036 5 3.76754 5 3.90015C5 4.03275 5.05268 4.15993 5.14645 4.2537C5.24021 4.34747 5.36739 4.40015 5.5 4.40015H14.5C14.6326 4.40015 14.7598 4.34747 14.8536 4.2537C14.9473 4.15993 15 4.03275 15 3.90015C15 3.76754 14.9473 3.64036 14.8536 3.54659C14.7598 3.45283 14.6326 3.40015 14.5 3.40015H5.5ZM5.5 7.90015C5.36739 7.90015 5.24021 7.95283 5.14645 8.04659C5.05268 8.14036 5 8.26754 5 8.40015C5 8.53275 5.05268 8.65993 5.14645 8.7537C5.24021 8.84747 5.36739 8.90015 5.5 8.90015H14.5C14.6326 8.90015 14.7598 8.84747 14.8536 8.7537C14.9473 8.65993 15 8.53275 15 8.40015C15 8.26754 14.9473 8.14036 14.8536 8.04659C14.7598 7.95283 14.6326 7.90015 14.5 7.90015H5.5ZM5.5 12.4001C5.36739 12.4001 5.24021 12.4528 5.14645 12.5466C5.05268 12.6404 5 12.7675 5 12.9001C5 13.0328 5.05268 13.1599 5.14645 13.2537C5.24021 13.3475 5.36739 13.4001 5.5 13.4001H14.5C14.6326 13.4001 14.7598 13.3475 14.8536 13.2537C14.9473 13.1599 15 13.0328 15 12.9001C15 12.7675 14.9473 12.6404 14.8536 12.5466C14.7598 12.4528 14.6326 12.4001 14.5 12.4001H5.5ZM3 8.40015C3 8.66536 2.89464 8.91972 2.70711 9.10725C2.51957 9.29479 2.26522 9.40015 2 9.40015C1.73478 9.40015 1.48043 9.29479 1.29289 9.10725C1.10536 8.91972 1 8.66536 1 8.40015C1 8.13493 1.10536 7.88058 1.29289 7.69304C1.48043 7.5055 1.73478 7.40015 2 7.40015C2.26522 7.40015 2.51957 7.5055 2.70711 7.69304C2.89464 7.88058 3 8.13493 3 8.40015ZM2 13.9001C2.26522 13.9001 2.51957 13.7948 2.70711 13.6073C2.89464 13.4197 3 13.1654 3 12.9001C3 12.6349 2.89464 12.3806 2.70711 12.193C2.51957 12.0055 2.26522 11.9001 2 11.9001C1.73478 11.9001 1.48043 12.0055 1.29289 12.193C1.10536 12.3806 1 12.6349 1 12.9001C1 13.1654 1.10536 13.4197 1.29289 13.6073C1.48043 13.7948 1.73478 13.9001 2 13.9001Z" fill="#E4002B"/>
</svg>
