<svg width="17" height="17" viewBox="0 0 17 17" fill="none" xmlns="http://www.w3.org/2000/svg">
<path fill-rule="evenodd" clip-rule="evenodd" d="M8.46107 1.43311C8.5553 1.34575 8.67959 1.29811 8.80807 1.30011L8.46107 1.43311ZM8.46107 1.43311L1.96107 7.43311C1.86374 7.52328 1.80621 7.64843 1.80115 7.78102C1.79608 7.91361 1.8439 8.04277 1.93407 8.14011C2.02424 8.23744 2.14939 8.29497 2.28198 8.30003C2.41457 8.3051 2.54374 8.25728 2.64107 8.16711L2.80107 8.02011V12.8001C2.80107 13.4632 3.06446 14.099 3.5333 14.5679C4.00214 15.0367 4.63803 15.3001 5.30107 15.3001H12.3011C12.9641 15.3001 13.6 15.0367 14.0688 14.5679C14.5377 14.099 14.8011 13.4632 14.8011 12.8001V8.01911L14.9611 8.16711C15.0584 8.25728 15.1876 8.3051 15.3202 8.30003C15.4528 8.29497 15.5779 8.23744 15.6681 8.14011C15.7582 8.04277 15.8061 7.91361 15.801 7.78102C15.7959 7.64843 15.7384 7.52328 15.6411 7.43311L9.14107 1.43311C9.05013 1.34882 8.93106 1.3014 8.80707 1.30011M12.3011 14.3001H10.8011V9.80011C10.8011 9.6675 10.7484 9.54032 10.6546 9.44656C10.5609 9.35279 10.4337 9.30011 10.3011 9.30011H7.30107C7.16846 9.30011 7.04129 9.35279 6.94752 9.44656C6.85375 9.54032 6.80107 9.6675 6.80107 9.80011V14.3001H5.30107C4.90325 14.3001 4.52172 14.1421 4.24041 13.8608C3.95911 13.5795 3.80107 13.1979 3.80107 12.8001V7.11811L8.80107 2.48211L13.8011 7.11811V12.8001C13.8011 13.1979 13.643 13.5795 13.3617 13.8608C13.0804 14.1421 12.6989 14.3001 12.3011 14.3001ZM9.80107 10.3001V14.3001H7.80107V10.3001H9.80107Z" fill="#3D3B40"/>
</svg>
