<svg width="637" height="114" viewBox="0 0 637 114" fill="none" xmlns="http://www.w3.org/2000/svg">
<path d="M0 107.433C3.59322 107.433 7.18644 107.433 10.7797 107.433C14.3729 107.433 17.9661 107.161 21.5593 106.617C25.1525 106.073 28.7458 100.935 32.339 100.18C35.9322 99.4243 39.5254 99.7265 43.1186 99.0465C46.7119 98.3665 50.3051 96.0999 53.8983 96.0999C57.4915 96.0999 61.0847 96.0999 64.678 96.0999C68.2712 96.0999 71.8644 95.7221 75.4576 94.9665C79.0508 94.211 82.6441 91.5163 86.2373 90.0052C89.8305 88.4941 93.4237 86.8769 97.017 85.8999C100.61 84.9229 104.203 84.6249 107.797 84.1432C111.39 83.6615 114.983 83.3026 118.576 83.0099C122.17 82.7171 125.763 82.3865 129.356 82.3865C132.949 82.3865 136.542 82.821 140.136 83.4065C143.729 83.9921 147.322 84.9082 150.915 85.8999C154.508 86.8915 158.102 89.0458 161.695 89.3565C165.288 89.6672 168.881 89.6977 172.475 89.8225C176.068 89.9474 179.661 90.1059 183.254 90.1059C186.847 90.1059 190.441 85.3336 194.034 83.4992C197.627 81.6649 201.22 80.6432 204.814 79.0999C208.407 77.5565 212 75.7503 215.593 74.2392C219.186 72.7281 222.78 72.6231 226.373 70.0332C229.966 67.4433 233.559 60.211 237.153 58.6999C240.746 57.1887 244.339 57.9443 247.932 56.4332C251.525 54.9221 255.119 51.5221 258.712 49.6332C262.305 47.7443 265.898 45.4776 269.492 45.0999C273.085 44.7221 276.678 44.911 280.271 44.5332C283.864 44.1554 287.458 41.4165 291.051 39.8865C294.644 38.3565 298.237 36.2599 301.831 35.3532C305.424 34.4465 309.017 34.4465 312.61 33.9932C316.203 33.5399 319.797 33.5399 323.39 32.6332C326.983 31.7265 330.576 22.4332 334.169 22.4332C337.763 22.4332 341.356 22.4332 344.949 22.4332C348.542 22.4332 352.136 22.4332 355.729 22.4332C359.322 22.4332 362.915 23.9443 366.508 25.8332C370.102 27.7221 373.695 33.7665 377.288 33.7665C380.881 33.7665 384.475 26.9665 388.068 26.9665C391.661 26.9665 395.254 28.0999 398.847 29.0065C402.441 29.9132 406.034 30.8576 409.627 32.4065C413.22 33.9554 416.814 38.2999 420.407 38.2999C424 38.2999 427.593 38.0732 431.186 38.0732C434.78 38.0732 438.373 38.1487 441.966 38.2999C445.559 38.451 449.153 40.5665 452.746 40.5665C456.339 40.5665 459.932 40.5665 463.525 40.5665C467.119 40.5665 470.712 43.7399 474.305 43.7399C477.898 43.7399 481.491 43.211 485.085 42.1532C488.678 41.0954 492.271 35.6932 495.864 32.4065C499.458 29.1199 503.051 25.4176 506.644 22.4332C510.237 19.4488 513.831 16.3888 517.424 14.4999C521.017 12.611 524.61 11.0999 528.203 11.0999C531.797 11.0999 535.39 13.3665 538.983 13.3665C542.576 13.3665 546.169 10.3443 549.763 8.83319C553.356 7.32208 556.949 4.7532 560.542 4.29986C564.136 3.84653 567.729 3.84653 571.322 3.61986C574.915 3.39319 578.508 3.22319 582.102 2.93986C585.695 2.65653 589.288 1.91986 592.881 1.91986C596.475 1.91986 600.068 6.56653 603.661 6.56653C607.254 6.56653 610.847 6.56653 614.441 6.56653C618.034 6.56653 621.627 9.38853 625.22 11.3719C628.814 13.3552 632.407 15.9109 636 18.4665V113.1C632.407 113.1 628.814 113.1 625.22 113.1C621.627 113.1 618.034 113.1 614.441 113.1C610.847 113.1 607.254 113.1 603.661 113.1C600.068 113.1 596.475 113.1 592.881 113.1C589.288 113.1 585.695 113.1 582.102 113.1C578.508 113.1 574.915 113.1 571.322 113.1C567.729 113.1 564.136 113.1 560.542 113.1C556.949 113.1 553.356 113.1 549.763 113.1C546.169 113.1 542.576 113.1 538.983 113.1C535.39 113.1 531.797 113.1 528.203 113.1C524.61 113.1 521.017 113.1 517.424 113.1C513.831 113.1 510.237 113.1 506.644 113.1C503.051 113.1 499.458 113.1 495.864 113.1C492.271 113.1 488.678 113.1 485.085 113.1C481.491 113.1 477.898 113.1 474.305 113.1C470.712 113.1 467.119 113.1 463.525 113.1C459.932 113.1 456.339 113.1 452.746 113.1C449.153 113.1 445.559 113.1 441.966 113.1C438.373 113.1 434.78 113.1 431.186 113.1C427.593 113.1 424 113.1 420.407 113.1C416.814 113.1 413.22 113.1 409.627 113.1C406.034 113.1 402.441 113.1 398.847 113.1C395.254 113.1 391.661 113.1 388.068 113.1C384.475 113.1 380.881 113.1 377.288 113.1C373.695 113.1 370.102 113.1 366.508 113.1C362.915 113.1 359.322 113.1 355.729 113.1C352.136 113.1 348.542 113.1 344.949 113.1C341.356 113.1 337.763 113.1 334.169 113.1C330.576 113.1 326.983 113.1 323.39 113.1C319.797 113.1 316.203 113.1 312.61 113.1C309.017 113.1 305.424 113.1 301.831 113.1C298.237 113.1 294.644 113.1 291.051 113.1C287.458 113.1 283.864 113.1 280.271 113.1C276.678 113.1 273.085 113.1 269.492 113.1C265.898 113.1 262.305 113.1 258.712 113.1C255.119 113.1 251.525 113.1 247.932 113.1C244.339 113.1 240.746 113.1 237.153 113.1C233.559 113.1 229.966 113.1 226.373 113.1C222.78 113.1 219.186 113.1 215.593 113.1C212 113.1 208.407 113.1 204.814 113.1C201.22 113.1 197.627 113.1 194.034 113.1C190.441 113.1 186.847 113.1 183.254 113.1C179.661 113.1 176.068 113.1 172.475 113.1C168.881 113.1 165.288 113.1 161.695 113.1C158.102 113.1 154.508 113.1 150.915 113.1C147.322 113.1 143.729 113.1 140.136 113.1C136.542 113.1 132.949 113.1 129.356 113.1C125.763 113.1 122.17 113.1 118.576 113.1C114.983 113.1 111.39 113.1 107.797 113.1C104.203 113.1 100.61 113.1 97.017 113.1C93.4237 113.1 89.8305 113.1 86.2373 113.1C82.6441 113.1 79.0508 113.1 75.4576 113.1C71.8644 113.1 68.2712 113.1 64.678 113.1C61.0847 113.1 57.4915 113.1 53.8983 113.1C50.3051 113.1 46.7119 113.1 43.1186 113.1C39.5254 113.1 35.9322 113.1 32.339 113.1C28.7458 113.1 25.1525 113.1 21.5593 113.1C17.9661 113.1 14.3729 113.1 10.7797 113.1C7.18644 113.1 3.59322 113.1 0 113.1V107.433Z" fill="#DBF7FF" fill-opacity="0.5"/>
<path d="M0 107.433C3.59322 107.433 7.18644 107.433 10.7797 107.433C14.3729 107.433 17.9661 107.161 21.5593 106.617C25.1525 106.073 28.7458 100.935 32.339 100.18C35.9322 99.4243 39.5254 99.7265 43.1186 99.0465C46.7119 98.3665 50.3051 96.0999 53.8983 96.0999C57.4915 96.0999 61.0847 96.0999 64.678 96.0999C68.2712 96.0999 71.8644 95.7221 75.4576 94.9665C79.0508 94.211 82.6441 91.5164 86.2373 90.0052C89.8305 88.4941 93.4237 86.8769 97.017 85.8999C100.61 84.9229 104.203 84.6249 107.797 84.1432C111.39 83.6615 114.983 83.3026 118.576 83.0099C122.169 82.7171 125.763 82.3865 129.356 82.3865C132.949 82.3865 136.542 82.821 140.136 83.4065C143.729 83.9921 147.322 84.9082 150.915 85.8999C154.508 86.8915 158.102 89.0458 161.695 89.3565C165.288 89.6672 168.881 89.6977 172.475 89.8225C176.068 89.9474 179.661 90.1059 183.254 90.1059C186.847 90.1059 190.441 85.3336 194.034 83.4992C197.627 81.6649 201.22 80.6432 204.814 79.0999C208.407 77.5565 212 75.7503 215.593 74.2392C219.186 72.7281 222.78 72.6231 226.373 70.0332C229.966 67.4433 233.559 60.211 237.153 58.6999C240.746 57.1887 244.339 57.9443 247.932 56.4332C251.525 54.9221 255.119 51.5221 258.712 49.6332C262.305 47.7443 265.898 45.4776 269.492 45.0999C273.085 44.7221 276.678 44.911 280.271 44.5332C283.864 44.1554 287.458 41.4165 291.051 39.8865C294.644 38.3565 298.237 36.2599 301.831 35.3532C305.424 34.4465 309.017 34.4465 312.61 33.9932C316.203 33.5399 319.797 33.5399 323.39 32.6332C326.983 31.7265 330.576 22.4332 334.169 22.4332C337.763 22.4332 341.356 22.4332 344.949 22.4332C348.542 22.4332 352.136 22.4332 355.729 22.4332C359.322 22.4332 362.915 23.9443 366.508 25.8332C370.102 27.7221 373.695 33.7665 377.288 33.7665C380.881 33.7665 384.475 26.9665 388.068 26.9665C391.661 26.9665 395.254 28.0999 398.847 29.0065C402.441 29.9132 406.034 30.8576 409.627 32.4065C413.22 33.9554 416.814 38.2999 420.407 38.2999C424 38.2999 427.593 38.0732 431.186 38.0732C434.78 38.0732 438.373 38.1487 441.966 38.2999C445.559 38.451 449.153 40.5665 452.746 40.5665C456.339 40.5665 459.932 40.5665 463.525 40.5665C467.119 40.5665 470.712 43.7399 474.305 43.7399C477.898 43.7399 481.491 43.211 485.085 42.1532C488.678 41.0954 492.271 35.6932 495.864 32.4065C499.458 29.1199 503.051 25.4176 506.644 22.4332C510.237 19.4488 513.83 16.3888 517.424 14.4999C521.017 12.611 524.61 11.0999 528.203 11.0999C531.797 11.0999 535.39 13.3665 538.983 13.3665C542.576 13.3665 546.169 10.3443 549.763 8.83319C553.356 7.32208 556.949 4.7532 560.542 4.29986C564.136 3.84653 567.729 3.84653 571.322 3.61986C574.915 3.39319 578.508 3.22319 582.102 2.93986C585.695 2.65653 589.288 1.91986 592.881 1.91986C596.475 1.91986 600.068 6.56653 603.661 6.56653C607.254 6.56653 610.847 6.56653 614.441 6.56653C618.034 6.56653 621.627 9.38853 625.22 11.3719C628.814 13.3552 632.407 15.9109 636 18.4665" stroke="#0078BD" stroke-width="2"/>
</svg>
