<svg width="16" height="25" viewBox="0 0 16 25" fill="none" xmlns="http://www.w3.org/2000/svg">
<path d="M3.09587 17.863L13.5219 7.43702C13.574 7.38492 13.6 7.325 13.6 7.25726C13.6 7.18953 13.574 7.13482 13.5219 7.09313C13.4698 7.04103 13.4124 7.01498 13.3499 7.01498C13.2874 7.01498 13.2301 7.04103 13.178 7.09313L2.75198 17.5191C2.69988 17.5712 2.67383 17.6311 2.67383 17.6989C2.67383 17.7666 2.69988 17.8213 2.75198 17.863C2.79367 17.9151 2.84838 17.9412 2.91611 17.9412C2.98385 17.9412 3.04377 17.9151 3.09587 17.863ZM13.5219 17.5191L3.09587 7.09313C3.04377 7.04103 2.98385 7.01498 2.91611 7.01498C2.84838 7.01498 2.79367 7.04103 2.75198 7.09313C2.69988 7.13482 2.67383 7.18953 2.67383 7.25726C2.67383 7.325 2.69988 7.38492 2.75198 7.43702L13.178 17.863C13.2301 17.9151 13.2874 17.9412 13.3499 17.9412C13.4124 17.9412 13.4698 17.9151 13.5219 17.863C13.574 17.8213 13.6 17.7666 13.6 17.6989C13.6 17.6311 13.574 17.5712 13.5219 17.5191Z" fill="#333F48"/>
</svg>
