<svg width="48" height="72" viewBox="0 0 48 72" fill="none" xmlns="http://www.w3.org/2000/svg">
<path d="M14.5312 20.6955L30.1406 36.9143V34.8518L14.5312 51.1174C14.25 51.3987 14.1094 51.7502 14.1094 52.1721C14.1094 52.594 14.2656 52.9455 14.5781 53.2268C14.8594 53.508 15.2109 53.6409 15.6328 53.6252C16.0547 53.6096 16.4062 53.4612 16.6875 53.1799L32.2969 36.9143C32.5781 36.633 32.7188 36.2893 32.7188 35.883C32.7188 35.4768 32.5781 35.133 32.2969 34.8518L16.6875 18.5862C16.4062 18.3049 16.0547 18.1565 15.6328 18.1409C15.2109 18.1252 14.8594 18.258 14.5781 18.5393C14.2656 18.8205 14.1094 19.1721 14.1094 19.594C14.1094 20.0159 14.25 20.383 14.5312 20.6955Z" fill="white"/>
</svg>
