<svg width="60" height="91" viewBox="0 0 60 91" fill="none" xmlns="http://www.w3.org/2000/svg">
<path d="M11.543 41.1177V65.1411C11.543 66.313 11.9629 67.3188 12.8027 68.1587C13.6426 68.9985 14.668 69.4185 15.8789 69.4185H25.3125V53.1294L24.4336 53.9497H36.4453L35.5664 53.1294V69.4185H45C46.1719 69.4185 47.1777 68.9985 48.0176 68.1587C48.8574 67.3188 49.2773 66.313 49.2773 65.1411V41.1177C49.2773 40.8833 49.1992 40.6782 49.043 40.5024C48.8867 40.3267 48.6914 40.2388 48.457 40.2388C48.1836 40.2388 47.9688 40.3267 47.8125 40.5024C47.6562 40.6782 47.5781 40.8833 47.5781 41.1177V65.1411C47.5781 65.8442 47.3242 66.4399 46.8164 66.9282C46.3086 67.4165 45.7031 67.6606 45 67.6606H36.4453L37.2656 68.5396V52.2505H23.5547V68.5396L24.4336 67.6606H15.8789C15.1367 67.6606 14.5215 67.4165 14.0332 66.9282C13.5449 66.4399 13.3008 65.8442 13.3008 65.1411V41.1177C13.3008 40.8833 13.2129 40.6782 13.0371 40.5024C12.8613 40.3267 12.6562 40.2388 12.4219 40.2388C12.1875 40.2388 11.9824 40.3267 11.8066 40.5024C11.6309 40.6782 11.543 40.8833 11.543 41.1177ZM6.15234 47.7388L31.0547 22.8364H29.8242L54.668 47.7388C54.8242 47.895 55.0293 47.9731 55.2832 47.9731C55.5371 47.9731 55.7422 47.895 55.8984 47.7388C56.0547 47.5435 56.1328 47.3286 56.1328 47.0942C56.1328 46.8599 56.0547 46.6646 55.8984 46.5083L31.0547 21.6646C30.8594 21.4692 30.6445 21.3716 30.4102 21.3716C30.1758 21.3716 29.9805 21.4692 29.8242 21.6646L4.98047 46.5083C4.78516 46.6646 4.6875 46.8599 4.6875 47.0942C4.6875 47.3286 4.78516 47.5435 4.98047 47.7388C5.13672 47.895 5.33203 47.9731 5.56641 47.9731C5.80078 47.9731 5.99609 47.895 6.15234 47.7388Z" fill="#F6F5F7"/>
</svg>
