<svg width="48" height="72" viewBox="0 0 48 72" fill="none" xmlns="http://www.w3.org/2000/svg">
<path d="M28.9219 18.5862L13.3125 34.8518C13.0312 35.133 12.8906 35.4768 12.8906 35.883C12.8906 36.2893 13.0312 36.633 13.3125 36.9143L28.9219 53.1799C29.2031 53.4612 29.5547 53.6096 29.9766 53.6252C30.3984 53.6409 30.75 53.508 31.0312 53.2268C31.3438 52.9455 31.5 52.594 31.5 52.1721C31.5 51.7502 31.3594 51.3987 31.0781 51.1174L15.4688 34.8518V36.9143L31.0781 20.6955C31.3594 20.383 31.5 20.0159 31.5 19.594C31.5 19.1721 31.3438 18.8205 31.0312 18.5393C30.75 18.258 30.3984 18.1252 29.9766 18.1409C29.5547 18.1565 29.2031 18.3049 28.9219 18.5862Z" fill="white"/>
</svg>
