<svg width="16" height="25" viewBox="0 0 16 25" fill="none" xmlns="http://www.w3.org/2000/svg">
<path d="M5.3887 7.54013L10.7189 13.1048V12.7922L5.3887 18.3569C5.34701 18.3986 5.32617 18.4507 5.32617 18.5132C5.32617 18.5757 5.34701 18.6278 5.3887 18.6695C5.43038 18.7112 5.48248 18.7294 5.54501 18.7242C5.60753 18.719 5.65964 18.6956 5.70132 18.6539L11.0315 13.1048C11.0732 13.0631 11.0941 13.011 11.0941 12.9485C11.0941 12.886 11.0732 12.8339 11.0315 12.7922L5.70132 7.22751C5.65964 7.18583 5.60753 7.16498 5.54501 7.16498C5.48248 7.16498 5.43038 7.18583 5.3887 7.22751C5.34701 7.26919 5.32617 7.3213 5.32617 7.38382C5.32617 7.44635 5.34701 7.49845 5.3887 7.54013Z" fill="#333F48"/>
</svg>
