<svg width="20" height="21" viewBox="0 0 20 21" fill="none" xmlns="http://www.w3.org/2000/svg">
<g clip-path="url(#clip0_141_2863)">
<path fill-rule="evenodd" clip-rule="evenodd" d="M4.375 4.44995C3.5462 4.44995 2.75134 4.77919 2.16529 5.36524C1.57924 5.95129 1.25 6.74615 1.25 7.57495V13.825C1.25 14.6538 1.57924 15.4486 2.16529 16.0347C2.75134 16.6207 3.5462 16.95 4.375 16.95H15.625C16.4538 16.95 17.2487 16.6207 17.8347 16.0347C18.4208 15.4486 18.75 14.6538 18.75 13.825V7.57495C18.75 6.74615 18.4208 5.95129 17.8347 5.36524C17.2487 4.77919 16.4538 4.44995 15.625 4.44995H4.375ZM3.705 5.82245C3.91375 5.7437 4.13875 5.69995 4.375 5.69995H15.625C15.8612 5.69995 16.0875 5.7437 16.2937 5.82245L10 10.5437L3.705 5.82245ZM2.7375 6.65995C2.5875 6.92995 2.5 7.24245 2.5 7.57495V13.825C2.5 14.3222 2.69754 14.7991 3.04917 15.1508C3.40081 15.5024 3.87772 15.7 4.375 15.7H15.625C16.1223 15.7 16.5992 15.5024 16.9508 15.1508C17.3025 14.7991 17.5 14.3222 17.5 13.825V7.57495C17.5 7.24245 17.4125 6.92995 17.2625 6.65995L10.375 11.825C10.2668 11.9061 10.1352 11.95 10 11.95C9.86477 11.95 9.73318 11.9061 9.625 11.825L2.7375 6.65995Z" fill="black"/>
</g>
<defs>
<clipPath id="clip0_141_2863">
<rect width="20" height="20" fill="white" transform="translate(0 0.699951)"/>
</clipPath>
</defs>
</svg>
