<svg width="158" height="29" viewBox="0 0 158 29" fill="none" xmlns="http://www.w3.org/2000/svg">
<g clip-path="url(#clip0_140_289)">
<g clip-path="url(#clip1_140_289)">
<path d="M15.6631 13.4424C15.6631 13.4424 18.655 9.26782 21.8145 9.26782C22.8649 9.26782 23.5772 9.76552 23.6499 10.459C23.7225 11.1524 23.3091 12.0639 21.8844 11.9717C20.8871 11.9074 17.4147 11.3286 15.2162 15.3605C15.2162 15.3605 15.0653 12.735 13.6993 11.1971C12.9757 10.3807 13.0512 9.62292 13.7747 9.17555C13.7747 9.17555 14.9899 8.55482 15.367 10.4198C15.5346 11.2587 15.7916 12.57 15.6631 13.4424Z" fill="#5AE2E0"/>
<path d="M14.8336 17.0438C14.8336 17.0438 16.8058 12.4862 22.256 13.2215C23.1751 13.3446 23.7701 13.9709 23.6891 14.8992C23.5942 15.9337 22.4153 16.1686 21.4012 15.8918C17.9707 14.9495 16.5377 15.3801 14.5459 18.33C13.8978 14.6951 11.6071 14.1694 10.8863 13.0678C10.6545 12.7154 10.5176 12.0612 10.9282 11.6697C11.1197 11.4714 11.3776 11.3508 11.6524 11.3312C11.9272 11.3116 12.1996 11.3943 12.4172 11.5635C13.3502 12.282 14.6744 15.3326 14.8336 17.0438Z" fill="#E4002B"/>
<path d="M13.948 21.4085C13.948 21.4085 14.1017 17.7261 9.34704 16.219C8.60396 15.9813 8.14582 15.1005 8.46987 14.4742C8.79392 13.8479 9.64874 13.764 10.4505 14.1666C13.2804 15.5926 14.2302 19.6134 14.2302 19.6134C16.6075 16.0876 20.3145 16.5377 21.9459 16.9683C23.5773 17.3989 23.8735 18.4838 23.5941 19.2248C23.3148 19.9657 22.4013 20.3907 20.7503 19.5491C20.605 19.482 16.1242 17.0606 13.948 21.4085Z" fill="white"/>
<path d="M36.0897 8.98828H38.1597V20.2202H35.9612V12.475L32.8883 16.6999H32.5195L29.3964 12.475V20.2202H27.2146V8.98828H29.2846L32.7207 13.7109L36.0897 8.98828Z" fill="white"/>
<path d="M39.5649 16.0734C39.5649 13.5206 41.3779 11.7535 43.8195 11.7535C46.2611 11.7535 48.1048 13.5206 48.1048 16.0734C48.1048 18.6262 46.289 20.4129 43.8195 20.4129C41.35 20.4129 39.5649 18.6458 39.5649 16.0734ZM45.9901 16.0734C45.9901 14.4992 45.0598 13.5989 43.8251 13.5989C42.5903 13.5989 41.688 14.4992 41.688 16.0734C41.688 17.6476 42.6043 18.5899 43.8251 18.5899C45.0459 18.5899 45.9845 17.656 45.9845 16.0734H45.9901Z" fill="white"/>
<path d="M53.9516 11.7536V13.9709H53.0772C52.1135 13.9709 51.4235 14.6615 51.4235 15.8806V20.2201H49.3618V11.9465H51.4318V13.1348C51.6023 12.7225 51.8922 12.3707 52.264 12.1245C52.6359 11.8784 53.0728 11.7492 53.5186 11.7536H53.9516Z" fill="white"/>
<path d="M59.7985 13.599H57.952V17.2339C57.952 18.0196 58.2733 18.4223 58.9159 18.4223H59.7985V20.2062H58.6643C56.8988 20.2062 55.8876 19.0877 55.8876 17.329V13.599H54.3792V11.9465H55.8708V10.3555L57.9408 9.21472V11.9465H59.7873L59.7985 13.599Z" fill="white"/>
<path d="M66.3804 11.9467H68.442V19.1438C68.442 21.6966 66.724 23.1758 64.2042 23.1758C63.4246 23.1904 62.6567 22.9839 61.9893 22.5802C61.3219 22.1764 60.7824 21.5919 60.4329 20.8941L61.9722 19.8652C62.4555 20.7488 63.274 21.3611 64.2517 21.3611C65.4082 21.3611 66.3692 20.6705 66.3692 19.2556V18.277C66.118 18.6833 65.7641 19.0159 65.3432 19.2413C64.9223 19.4667 64.4494 19.5767 63.9724 19.5604C61.9331 19.5604 60.4246 17.8828 60.4246 15.6459C60.4246 13.409 61.9331 11.7314 63.9724 11.7314C64.4528 11.7129 64.9294 11.8238 65.3525 12.0525C65.7755 12.2812 66.1296 12.6193 66.3776 13.0316L66.3804 11.9467ZM66.4139 15.6571C66.4139 14.4212 65.6122 13.5852 64.4892 13.5852C63.3662 13.5852 62.5337 14.424 62.5337 15.6571C62.5337 16.8902 63.3382 17.729 64.4892 17.729C65.6401 17.729 66.4139 16.8929 66.4139 15.6571Z" fill="white"/>
<path d="M77.2051 15.0137V20.22H75.2775V19.4175C74.7803 20.0746 73.931 20.4129 72.8388 20.4129C70.914 20.4129 69.6458 19.4483 69.6458 17.8266C69.6458 16.2663 70.9615 15.2542 72.984 15.2542C73.7709 15.2091 74.545 15.4684 75.1462 15.9783V15.2234C75.1462 14.105 74.5037 13.5989 73.4282 13.5989C73.0178 13.5828 72.6137 13.7037 72.2794 13.9426C71.9451 14.1815 71.6997 14.5249 71.5817 14.9186L69.8636 14.1944C70.4224 12.4441 71.8722 11.7535 73.5092 11.7535C75.4871 11.7535 77.2051 12.7824 77.2051 15.0137ZM75.1826 17.8098C75.1826 17.1024 74.4926 16.6914 73.4813 16.6914C72.47 16.6914 71.794 17.0968 71.794 17.8098C71.794 18.5228 72.484 18.9031 73.4953 18.9031C74.5065 18.9031 75.1826 18.5172 75.1826 17.8098Z" fill="white"/>
<path d="M84.3369 11.9466H86.407V19.1437C86.407 21.6965 84.6889 23.1756 82.1692 23.1756C81.3896 23.19 80.6218 22.9834 79.9545 22.5796C79.2872 22.1759 78.7476 21.5916 78.3979 20.894L79.9371 19.8651C80.4204 20.7486 81.2389 21.361 82.2166 21.361C83.3732 21.361 84.3369 20.6703 84.3369 19.2555V18.2769C84.0844 18.6844 83.7286 19.0179 83.3057 19.2433C82.8827 19.4687 82.4077 19.5781 81.9289 19.5603C79.8896 19.5603 78.3811 17.8826 78.3811 15.6458C78.3811 13.4089 79.8896 11.7313 81.9289 11.7313C82.4097 11.7129 82.8867 11.8238 83.3102 12.0524C83.7337 12.2811 84.0882 12.6192 84.3369 13.0314V11.9466ZM84.3649 15.657C84.3649 14.4211 83.5631 13.5851 82.4401 13.5851C81.3171 13.5851 80.4846 14.4239 80.4846 15.657C80.4846 16.89 81.2864 17.7289 82.4401 17.7289C83.5939 17.7289 84.3649 16.8928 84.3649 15.657Z" fill="white"/>
<path d="M95.5782 16.5378H89.7509C89.8794 18.0001 90.6504 18.6432 91.7063 18.6432C92.6841 18.6432 93.3825 18.1931 93.8238 17.069L95.5754 17.7093C94.9329 19.5743 93.4719 20.4104 91.7874 20.4104C89.3458 20.4104 87.6445 18.674 87.6445 16.0708C87.6445 13.4677 89.3207 11.7509 91.6896 11.7509C93.9859 11.7509 95.6005 13.4845 95.6005 16.0568C95.5922 16.2022 95.5922 16.3952 95.5782 16.5378ZM89.8151 15.1397H93.4914C93.2651 13.9682 92.6087 13.4369 91.6924 13.4369C90.6811 13.4229 90.0386 13.985 89.8151 15.1397Z" fill="white"/>
<path d="M99.6594 14.5973C99.6594 11.1413 102.003 8.78137 105.294 8.78137C107.719 8.78137 109.596 10.0648 110.322 12.3632L108.317 13.1013C107.817 11.6725 106.741 10.789 105.297 10.789C103.361 10.789 101.964 12.2178 101.964 14.5973C101.964 16.9767 103.361 18.4027 105.302 18.4027C106.747 18.4027 107.817 17.522 108.322 16.0904L110.32 16.8173C109.596 19.1157 107.719 20.4019 105.291 20.4019C102.003 20.4131 99.6594 18.0504 99.6594 14.5973Z" fill="white"/>
<path d="M118.608 14.8853V20.2202H116.538V15.2404C116.538 14.1639 115.927 13.5627 115.094 13.5627C114.114 13.5627 113.418 14.2226 113.418 15.3634V20.2202H111.348V8.98828H113.418V13.0231C113.637 12.6196 113.966 12.2864 114.366 12.0618C114.767 11.8372 115.222 11.7304 115.681 11.7536C117.357 11.7536 118.608 12.9895 118.608 14.8853Z" fill="white"/>
<path d="M119.784 16.0734C119.784 13.5206 121.597 11.7535 124.039 11.7535C126.48 11.7535 128.324 13.5206 128.324 16.0734C128.324 18.6262 126.508 20.4129 124.033 20.4129C121.558 20.4129 119.784 18.6458 119.784 16.0734ZM126.209 16.0734C126.209 14.4992 125.279 13.5989 124.044 13.5989C122.81 13.5989 121.907 14.4992 121.907 16.0734C121.907 17.6476 122.824 18.5899 124.044 18.5899C125.265 18.5899 126.204 17.656 126.204 16.0734H126.209Z" fill="white"/>
<path d="M129.291 9.76001C129.313 9.42121 129.463 9.10346 129.71 8.87128C129.958 8.6391 130.284 8.50989 130.623 8.50989C130.962 8.50989 131.289 8.6391 131.536 8.87128C131.784 9.10346 131.934 9.42121 131.956 9.76001C131.956 10.5485 131.364 10.9987 130.623 10.9987C129.883 10.9987 129.291 10.5485 129.291 9.76001ZM131.651 11.9466V20.2202H129.581V11.9466H131.651Z" fill="white"/>
<path d="M132.905 16.0734C132.905 13.487 134.704 11.7535 137.045 11.7535C138.875 11.7535 140.448 12.6678 140.995 14.6922L139.166 15.352C138.763 14.0826 138.09 13.5849 137.045 13.5849C136.001 13.5849 135.04 14.4042 135.04 16.0734C135.04 17.7427 136.003 18.5647 137.045 18.5647C138.087 18.5647 138.763 18.0838 139.166 16.8144L140.995 17.4715C140.437 19.4958 138.875 20.4129 137.045 20.4129C134.704 20.4129 132.905 18.6598 132.905 16.0734Z" fill="white"/>
<path d="M149.619 16.5378H143.792C143.921 18.0001 144.692 18.6432 145.747 18.6432C146.728 18.6432 147.424 18.1931 147.868 17.069L149.617 17.7093C148.974 19.5743 147.513 20.4104 145.829 20.4104C143.39 20.4104 141.688 18.674 141.688 16.0708C141.688 13.4677 143.365 11.7509 145.734 11.7509C148.027 11.7509 149.644 13.4845 149.644 16.0568C149.644 16.2175 149.636 16.378 149.619 16.5378ZM143.867 15.1397H147.544C147.32 13.9682 146.661 13.4369 145.747 13.4369C144.725 13.4229 144.083 13.985 143.867 15.1397Z" fill="white"/>
</g>
</g>
<defs>
<clipPath id="clip0_140_289">
<rect width="158" height="28" fill="white" transform="translate(0 0.599976)"/>
</clipPath>
<clipPath id="clip1_140_289">
<rect width="158" height="28" fill="white" transform="translate(0 0.599976)"/>
</clipPath>
</defs>
</svg>
