<svg width="24" height="25" viewBox="0 0 24 25" fill="none" xmlns="http://www.w3.org/2000/svg">
<path fill-rule="evenodd" clip-rule="evenodd" d="M6.5 2.8999H7.5C7.89782 2.8999 8.27936 3.05794 8.56066 3.33924C8.84196 3.62055 9 4.00208 9 4.3999V4.8999H15V4.3999C15 4.00208 15.158 3.62055 15.4393 3.33924C15.7206 3.05794 16.1022 2.8999 16.5 2.8999H17.5C17.8978 2.8999 18.2794 3.05794 18.5607 3.33924C18.842 3.62055 19 4.00208 19 4.3999V4.8999H19.5C20.4283 4.8999 21.3185 5.26865 21.9749 5.92503C22.6313 6.58141 23 7.47164 23 8.3999V19.3999C23 20.3282 22.6313 21.2184 21.9749 21.8748C21.3185 22.5312 20.4283 22.8999 19.5 22.8999H4.5C3.57174 22.8999 2.6815 22.5312 2.02513 21.8748C1.36875 21.2184 1 20.3282 1 19.3999V8.3999C1 7.47164 1.36875 6.58141 2.02513 5.92503C2.6815 5.26865 3.57174 4.8999 4.5 4.8999H5V4.3999C5 4.00208 5.15804 3.62055 5.43934 3.33924C5.72064 3.05794 6.10218 2.8999 6.5 2.8999ZM19 5.8999V6.3999C19 6.79773 18.842 7.17926 18.5607 7.46056C18.2794 7.74187 17.8978 7.8999 17.5 7.8999H16.5C16.1022 7.8999 15.7206 7.74187 15.4393 7.46056C15.158 7.17926 15 6.79773 15 6.3999V5.8999H9V6.3999C9 6.79773 8.84196 7.17926 8.56066 7.46056C8.27936 7.74187 7.89782 7.8999 7.5 7.8999H6.5C6.10218 7.8999 5.72064 7.74187 5.43934 7.46056C5.15804 7.17926 5 6.79773 5 6.3999V5.8999H4.5C3.83696 5.8999 3.20107 6.16329 2.73223 6.63214C2.26339 7.10098 2 7.73686 2 8.3999V8.8999H22V8.3999C22 7.73686 21.7366 7.10098 21.2678 6.63214C20.7989 6.16329 20.163 5.8999 19.5 5.8999H19ZM16 4.8999V6.3999C16 6.53251 16.0527 6.65969 16.1464 6.75346C16.2402 6.84722 16.3674 6.8999 16.5 6.8999H17.5C17.6326 6.8999 17.7598 6.84722 17.8536 6.75346C17.9473 6.65969 18 6.53251 18 6.3999V4.3999C18 4.26729 17.9473 4.14012 17.8536 4.04635C17.7598 3.95258 17.6326 3.8999 17.5 3.8999H16.5C16.3674 3.8999 16.2402 3.95258 16.1464 4.04635C16.0527 4.14012 16 4.26729 16 4.3999V4.8999ZM8 4.3999V6.3999C8 6.53251 7.94732 6.65969 7.85355 6.75346C7.75979 6.84722 7.63261 6.8999 7.5 6.8999H6.5C6.36739 6.8999 6.24021 6.84722 6.14645 6.75346C6.05268 6.65969 6 6.53251 6 6.3999V4.3999C6 4.26729 6.05268 4.14012 6.14645 4.04635C6.24021 3.95258 6.36739 3.8999 6.5 3.8999H7.5C7.63261 3.8999 7.75979 3.95258 7.85355 4.04635C7.94732 4.14012 8 4.26729 8 4.3999ZM2 9.8999V19.3999C2 20.0629 2.26339 20.6988 2.73223 21.1677C3.20107 21.6365 3.83696 21.8999 4.5 21.8999H19.5C20.163 21.8999 20.7989 21.6365 21.2678 21.1677C21.7366 20.6988 22 20.0629 22 19.3999V9.8999H2ZM4 13.3999C4 13.2673 4.05268 13.1401 4.14645 13.0463C4.24021 12.9526 4.36739 12.8999 4.5 12.8999H7V11.3999C7 11.2673 7.05268 11.1401 7.14645 11.0463C7.24021 10.9526 7.36739 10.8999 7.5 10.8999C7.63261 10.8999 7.75979 10.9526 7.85355 11.0463C7.94732 11.1401 8 11.2673 8 11.3999V12.8999H16V11.3999C16 11.2673 16.0527 11.1401 16.1464 11.0463C16.2402 10.9526 16.3674 10.8999 16.5 10.8999C16.6326 10.8999 16.7598 10.9526 16.8536 11.0463C16.9473 11.1401 17 11.2673 17 11.3999V12.8999H19.5C19.6326 12.8999 19.7598 12.9526 19.8536 13.0463C19.9473 13.1401 20 13.2673 20 13.3999C20 13.5325 19.9473 13.6597 19.8536 13.7535C19.7598 13.8472 19.6326 13.8999 19.5 13.8999H17V17.8999H19.5C19.6326 17.8999 19.7598 17.9526 19.8536 18.0463C19.9473 18.1401 20 18.2673 20 18.3999C20 18.5325 19.9473 18.6597 19.8536 18.7535C19.7598 18.8472 19.6326 18.8999 19.5 18.8999H17V20.3999C17 20.5325 16.9473 20.6597 16.8536 20.7535C16.7598 20.8472 16.6326 20.8999 16.5 20.8999C16.3674 20.8999 16.2402 20.8472 16.1464 20.7535C16.0527 20.6597 16 20.5325 16 20.3999V18.8999H8V20.3999C8 20.5325 7.94732 20.6597 7.85355 20.7535C7.75979 20.8472 7.63261 20.8999 7.5 20.8999C7.36739 20.8999 7.24021 20.8472 7.14645 20.7535C7.05268 20.6597 7 20.5325 7 20.3999V18.8999H4.5C4.36739 18.8999 4.24021 18.8472 4.14645 18.7535C4.05268 18.6597 4 18.5325 4 18.3999C4 18.2673 4.05268 18.1401 4.14645 18.0463C4.24021 17.9526 4.36739 17.8999 4.5 17.8999H7V13.8999H4.5C4.36739 13.8999 4.24021 13.8472 4.14645 13.7535C4.05268 13.6597 4 13.5325 4 13.3999ZM16 17.8999V13.8999H8V17.8999H16Z" fill="#3D3B40"/>
</svg>
