<svg width="17" height="17" viewBox="0 0 17 17" fill="none" xmlns="http://www.w3.org/2000/svg">
<path fill-rule="evenodd" clip-rule="evenodd" d="M6.05961 1.6001C5.25027 1.59989 4.46587 1.88018 3.83994 2.39325C3.21401 2.90632 2.78524 3.62046 2.62661 4.4141L2.15361 6.7821C1.52961 7.0821 1.09961 7.7201 1.09961 8.4571V11.1001C1.09961 12.3101 1.95661 13.3201 3.09961 13.5501V14.1001C3.09961 14.4979 3.25764 14.8795 3.53895 15.1608C3.82025 15.4421 4.20178 15.6001 4.59961 15.6001H5.59961C5.99743 15.6001 6.37897 15.4421 6.66027 15.1608C6.94157 14.8795 7.09961 14.4979 7.09961 14.1001V13.6001H9.09961V14.1001C9.09961 14.4979 9.25764 14.8795 9.53895 15.1608C9.82025 15.4421 10.2018 15.6001 10.5996 15.6001H11.5996C11.9974 15.6001 12.379 15.4421 12.6603 15.1608C12.9416 14.8795 13.0996 14.4979 13.0996 14.1001V13.5501C14.2426 13.3201 15.0996 12.3101 15.0996 11.1001V8.4571C15.0996 7.7191 14.6696 7.0821 14.0456 6.7821L13.5726 4.4141C13.414 3.62046 12.9852 2.90632 12.3593 2.39325C11.7333 1.88018 10.9489 1.59989 10.1396 1.6001H6.05961ZM13.6656 7.7111C13.4219 7.86641 13.1586 7.98849 12.8826 8.0741C12.0606 8.3481 10.6256 8.6001 8.09961 8.6001C5.57361 8.6001 4.13861 8.3481 3.31661 8.0741C3.04062 7.98848 2.77729 7.8664 2.53361 7.7111C2.40174 7.78594 2.29209 7.89442 2.21585 8.02548C2.1396 8.15653 2.09949 8.30547 2.09961 8.4571V11.1001C2.09961 11.9301 2.76861 12.6001 3.59561 12.6001H12.6026C13.4306 12.6001 14.0996 11.9301 14.0996 11.1001V8.4571C14.0997 8.30547 14.0596 8.15653 13.9834 8.02548C13.9071 7.89442 13.7975 7.78594 13.6656 7.7111ZM12.0996 13.6001H10.0996V14.1001C10.0996 14.2327 10.1523 14.3599 10.2461 14.4537C10.3398 14.5474 10.467 14.6001 10.5996 14.6001H11.5996C11.7322 14.6001 11.8594 14.5474 11.9532 14.4537C12.0469 14.3599 12.0996 14.2327 12.0996 14.1001V13.6001ZM6.09961 13.6001H4.09961V14.1001C4.09961 14.2327 4.15229 14.3599 4.24606 14.4537C4.33982 14.5474 4.467 14.6001 4.59961 14.6001H5.59961C5.73222 14.6001 5.85939 14.5474 5.95316 14.4537C6.04693 14.3599 6.09961 14.2327 6.09961 14.1001V13.6001ZM3.63261 7.1261C3.46378 7.0731 3.30091 7.00273 3.14661 6.9161L3.60761 4.6101C3.72088 4.0434 4.02698 3.53345 4.47384 3.167C4.92069 2.80054 5.48071 2.60022 6.05861 2.6001H10.1406C10.7185 2.60022 11.2785 2.80054 11.7254 3.167C12.1722 3.53345 12.4783 4.0434 12.5916 4.6101L13.0526 6.9161C12.9576 6.9721 12.8046 7.0461 12.5666 7.1261C11.8886 7.3521 10.5736 7.6001 8.09961 7.6001C5.62561 7.6001 4.31061 7.3521 3.63261 7.1261ZM6.09961 10.6001C6.09961 10.8653 5.99425 11.1197 5.80672 11.3072C5.61918 11.4947 5.36483 11.6001 5.09961 11.6001C4.83439 11.6001 4.58004 11.4947 4.3925 11.3072C4.20497 11.1197 4.09961 10.8653 4.09961 10.6001C4.09961 10.3349 4.20497 10.0805 4.3925 9.89299C4.58004 9.70545 4.83439 9.6001 5.09961 9.6001C5.36483 9.6001 5.61918 9.70545 5.80672 9.89299C5.99425 10.0805 6.09961 10.3349 6.09961 10.6001ZM11.0996 11.6001C11.3648 11.6001 11.6192 11.4947 11.8067 11.3072C11.9943 11.1197 12.0996 10.8653 12.0996 10.6001C12.0996 10.3349 11.9943 10.0805 11.8067 9.89299C11.6192 9.70545 11.3648 9.6001 11.0996 9.6001C10.8344 9.6001 10.58 9.70545 10.3925 9.89299C10.205 10.0805 10.0996 10.3349 10.0996 10.6001C10.0996 10.8653 10.205 11.1197 10.3925 11.3072C10.58 11.4947 10.8344 11.6001 11.0996 11.6001Z" fill="#3D3B40"/>
</svg>
