<svg width="24" height="25" viewBox="0 0 24 25" fill="none" xmlns="http://www.w3.org/2000/svg">
<path fill-rule="evenodd" clip-rule="evenodd" d="M13.247 2.84495L12.333 2.02695C12.2414 1.94438 12.1224 1.89868 11.999 1.89868C11.8757 1.89868 11.7567 1.94438 11.665 2.02695L4.16702 8.72695C4.14514 8.7468 4.12506 8.76855 4.10702 8.79195L2.16702 10.5269C2.11804 10.5707 2.07815 10.6236 2.04963 10.6828C2.02111 10.7419 2.00451 10.8061 2.0008 10.8717C1.99709 10.9372 2.00632 11.0029 2.02798 11.0649C2.04963 11.1268 2.08329 11.184 2.12702 11.2329C2.17075 11.2819 2.2237 11.3218 2.28284 11.3503C2.34199 11.3789 2.40618 11.3954 2.47173 11.3992C2.53729 11.4029 2.60294 11.3936 2.66493 11.372C2.72692 11.3503 2.78404 11.3167 2.83302 11.2729L4.00002 10.2289V21.3999C4.00002 22.063 4.26341 22.6989 4.73225 23.1677C5.20109 23.6366 5.83698 23.8999 6.50002 23.8999H17.5C18.1631 23.8999 18.7989 23.6366 19.2678 23.1677C19.7366 22.6989 20 22.063 20 21.3999V10.2289L21.167 11.2729C21.216 11.3167 21.2731 11.3503 21.3351 11.372C21.3971 11.3936 21.4627 11.4029 21.5283 11.3992C21.5939 11.3954 21.658 11.3789 21.7172 11.3503C21.7763 11.3218 21.8293 11.2819 21.873 11.2329C21.9167 11.184 21.9504 11.1268 21.9721 11.0649C21.9937 11.0029 22.003 10.9372 21.9992 10.8717C21.9955 10.8061 21.9789 10.7419 21.9504 10.6828C21.9219 10.6236 21.882 10.5707 21.833 10.5269L19.893 8.79195C19.875 8.76854 19.8549 8.74679 19.833 8.72695L13.247 2.84495ZM12.58 3.58995L19 9.33395V21.3999C19 21.7978 18.842 22.1793 18.5607 22.4606C18.2794 22.7419 17.8978 22.8999 17.5 22.8999H15V16.8999C15 16.6347 14.8947 16.3804 14.7071 16.1928C14.5196 16.0053 14.2652 15.8999 14 15.8999H10C9.7348 15.8999 9.48045 16.0053 9.29291 16.1928C9.10538 16.3804 9.00002 16.6347 9.00002 16.8999V22.8999H6.50002C6.10219 22.8999 5.72066 22.7419 5.43936 22.4606C5.15805 22.1793 5.00002 21.7978 5.00002 21.3999V9.33395L12 3.07095L12.58 3.58995ZM11 22.8999H10V16.8999H14V22.8999H11Z" fill="#3D3B40"/>
</svg>
