<svg width="17" height="17" viewBox="0 0 17 17" fill="none" xmlns="http://www.w3.org/2000/svg">
<path fill-rule="evenodd" clip-rule="evenodd" d="M5.09807 1.74577C5.14451 1.69921 5.19969 1.66226 5.26043 1.63706C5.32118 1.61185 5.3863 1.59888 5.45207 1.59888C5.51783 1.59888 5.58295 1.61185 5.6437 1.63706C5.70444 1.66226 5.75962 1.69921 5.80607 1.74577L12.3061 8.24577C12.3526 8.29222 12.3896 8.34739 12.4148 8.40814C12.44 8.46888 12.453 8.534 12.453 8.59977C12.453 8.66554 12.44 8.73066 12.4148 8.7914C12.3896 8.85215 12.3526 8.90732 12.3061 8.95377L5.80607 15.4538C5.75958 15.5003 5.70439 15.5371 5.64365 15.5623C5.58291 15.5875 5.51781 15.6004 5.45207 15.6004C5.38632 15.6004 5.32122 15.5875 5.26048 15.5623C5.19974 15.5371 5.14455 15.5003 5.09807 15.4538C5.05158 15.4073 5.0147 15.3521 4.98954 15.2914C4.96438 15.2306 4.95143 15.1655 4.95143 15.0998C4.95143 15.034 4.96438 14.9689 4.98954 14.9082C5.0147 14.8474 5.05158 14.7923 5.09807 14.7458L11.2451 8.59977L5.09807 2.45377C5.0515 2.40733 5.01456 2.35215 4.98935 2.2914C4.96415 2.23066 4.95117 2.16554 4.95117 2.09977C4.95117 2.034 4.96415 1.96888 4.98935 1.90814C5.01456 1.84739 5.0515 1.79222 5.09807 1.74577Z" fill="#3D3B40"/>
</svg>
