<svg width="24" height="25" viewBox="0 0 24 25" fill="none" xmlns="http://www.w3.org/2000/svg">
<path fill-rule="evenodd" clip-rule="evenodd" d="M9.027 9.3999H13L13.05 10.8669H13.107C13.66 9.8169 14.984 8.8999 17 8.8999C21.196 8.8999 22 11.3019 22 14.8999V22.3999H18V15.7929C18 14.2429 17.627 12.3999 15.5 12.3999C13.344 12.3999 13 14.0499 13 15.7929V22.3999H9.027V9.3999ZM4.404 2.3999C5.04177 2.40096 5.65302 2.65519 6.10342 3.10672C6.55383 3.55825 6.80653 4.17014 6.806 4.8079C6.80653 5.44567 6.55383 6.05755 6.10342 6.50908C5.65302 6.96061 5.04177 7.21484 4.404 7.2159C4.088 7.21577 3.77513 7.15337 3.48326 7.03226C3.19139 6.91115 2.92625 6.73371 2.703 6.51008C2.47974 6.28645 2.30274 6.02102 2.18211 5.72895C2.06149 5.43688 1.99961 5.1239 2 4.8079C1.99961 4.4919 2.06149 4.17893 2.18211 3.88686C2.30274 3.59479 2.47974 3.32935 2.703 3.10572C2.92625 2.88209 3.19139 2.70465 3.48326 2.58355C3.77513 2.46244 4.088 2.40003 4.404 2.3999ZM2.5 22.3999H6.5V9.3999H2.5V22.3999Z" fill="#959199"/>
</svg>
