<svg width="24" height="25" viewBox="0 0 24 25" fill="none" xmlns="http://www.w3.org/2000/svg">
<path fill-rule="evenodd" clip-rule="evenodd" d="M1 8.19995C1 7.13909 1.42143 6.12167 2.17157 5.37152C2.92172 4.62138 3.93913 4.19995 5 4.19995H19C20.0609 4.19995 21.0783 4.62138 21.8284 5.37152C22.5786 6.12167 23 7.13909 23 8.19995V16.2C23 17.2608 22.5786 18.2782 21.8284 19.0284C21.0783 19.7785 20.0609 20.2 19 20.2H5C3.93913 20.2 2.92172 19.7785 2.17157 19.0284C1.42143 18.2782 1 17.2608 1 16.2V8.19995ZM5 5.19995C4.20435 5.19995 3.44129 5.51602 2.87868 6.07863C2.31607 6.64124 2 7.4043 2 8.19995V16.2C2 16.9956 2.31607 17.7587 2.87868 18.3213C3.44129 18.8839 4.20435 19.2 5 19.2H19C19.7956 19.2 20.5587 18.8839 21.1213 18.3213C21.6839 17.7587 22 16.9956 22 16.2V8.19995C22 7.4043 21.6839 6.64124 21.1213 6.07863C20.5587 5.51602 19.7956 5.19995 19 5.19995H5ZM6 8.69995C6 8.56734 6.05268 8.44017 6.14645 8.3464C6.24021 8.25263 6.36739 8.19995 6.5 8.19995H10C10.095 8.19999 10.188 8.22709 10.2682 8.27809C10.3484 8.32908 10.4123 8.40186 10.4526 8.4879C10.4929 8.57394 10.5079 8.66968 10.4957 8.76391C10.4836 8.85814 10.4448 8.94695 10.384 9.01995L8.522 11.255C8.98367 11.3535 9.408 11.5808 9.74589 11.9105C10.0838 12.2401 10.3214 12.6588 10.4313 13.1179C10.5412 13.577 10.5189 14.0578 10.3669 14.5048C10.2149 14.9517 9.93946 15.3465 9.57246 15.6434C9.20546 15.9403 8.76188 16.1273 8.29306 16.1826C7.82424 16.2379 7.34933 16.1594 6.92328 15.9561C6.49723 15.7528 6.13745 15.433 5.88558 15.0337C5.6337 14.6345 5.50002 14.172 5.5 13.7C5.5 13.5673 5.55268 13.4402 5.64645 13.3464C5.74021 13.2526 5.86739 13.2 6 13.2C6.13261 13.2 6.25979 13.2526 6.35355 13.3464C6.44732 13.4402 6.5 13.5673 6.5 13.7C6.5 13.9966 6.58797 14.2866 6.7528 14.5333C6.91762 14.78 7.15189 14.9722 7.42597 15.0858C7.70006 15.1993 8.00166 15.229 8.29264 15.1711C8.58361 15.1133 8.85088 14.9704 9.06066 14.7606C9.27044 14.5508 9.4133 14.2836 9.47118 13.9926C9.52906 13.7016 9.49935 13.4 9.38582 13.1259C9.27229 12.8518 9.08003 12.6176 8.83335 12.4527C8.58668 12.2879 8.29667 12.2 8 12.2H7.5C7.40499 12.1999 7.31196 12.1728 7.2318 12.1218C7.15164 12.0708 7.08767 11.998 7.04738 11.912C7.00709 11.826 6.99214 11.7302 7.00429 11.636C7.01645 11.5418 7.0552 11.453 7.116 11.38L8.932 9.19995H6.5C6.36739 9.19995 6.24021 9.14727 6.14645 9.0535C6.05268 8.95974 6 8.83256 6 8.69995ZM12.5 8.19995C12.3674 8.19995 12.2402 8.25263 12.1464 8.3464C12.0527 8.44017 12 8.56734 12 8.69995V15.7C12 15.8326 12.0527 15.9597 12.1464 16.0535C12.2402 16.1473 12.3674 16.2 12.5 16.2H14C15.0609 16.2 16.0783 15.7785 16.8284 15.0284C17.5786 14.2782 18 13.2608 18 12.2C18 11.1391 17.5786 10.1217 16.8284 9.37152C16.0783 8.62138 15.0609 8.19995 14 8.19995H12.5ZM14 15.2H13V9.19995H14C14.7956 9.19995 15.5587 9.51602 16.1213 10.0786C16.6839 10.6412 17 11.4043 17 12.2C17 12.9956 16.6839 13.7587 16.1213 14.3213C15.5587 14.8839 14.7956 15.2 14 15.2Z" fill="white"/>
</svg>
