<svg width="24" height="25" viewBox="0 0 24 25" fill="none" xmlns="http://www.w3.org/2000/svg">
<path fill-rule="evenodd" clip-rule="evenodd" d="M3.5 4.8999C2.83696 4.8999 2.20107 5.16329 1.73223 5.63214C1.26339 6.10098 1 6.73686 1 7.3999V18.3999C1 19.0629 1.26339 19.6988 1.73223 20.1677C2.20107 20.6365 2.83696 20.8999 3.5 20.8999H20.5C21.163 20.8999 21.7989 20.6365 22.2678 20.1677C22.7366 19.6988 23 19.0629 23 18.3999V7.3999C23 6.73686 22.7366 6.10098 22.2678 5.63214C21.7989 5.16329 21.163 4.8999 20.5 4.8999H3.5ZM8 7.3999V5.8999H3.5C3.10218 5.8999 2.72064 6.05794 2.43934 6.33924C2.15804 6.62055 2 7.00208 2 7.3999V11.8999H8V10.3999C8 10.2673 8.05268 10.1401 8.14645 10.0463C8.24021 9.95258 8.36739 9.8999 8.5 9.8999C8.63261 9.8999 8.75979 9.95258 8.85355 10.0463C8.94732 10.1401 9 10.2673 9 10.3999V14.3999C9 14.5325 8.94732 14.6597 8.85355 14.7535C8.75979 14.8472 8.63261 14.8999 8.5 14.8999C8.36739 14.8999 8.24021 14.8472 8.14645 14.7535C8.05268 14.6597 8 14.5325 8 14.3999V12.8999H2V18.3999C2 18.7977 2.15804 19.1793 2.43934 19.4606C2.72064 19.7419 3.10218 19.8999 3.5 19.8999H8V17.3999C8 17.2673 8.05268 17.1401 8.14645 17.0463C8.24021 16.9526 8.36739 16.8999 8.5 16.8999C8.63261 16.8999 8.75979 16.9526 8.85355 17.0463C8.94732 17.1401 9 17.2673 9 17.3999V19.8999H20.5C20.8978 19.8999 21.2794 19.7419 21.5607 19.4606C21.842 19.1793 22 18.7977 22 18.3999V10.8999H12.5C12.3674 10.8999 12.2402 10.8472 12.1464 10.7535C12.0527 10.6597 12 10.5325 12 10.3999C12 10.2673 12.0527 10.1401 12.1464 10.0463C12.2402 9.95258 12.3674 9.8999 12.5 9.8999H22V7.3999C22 7.00208 21.842 6.62055 21.5607 6.33924C21.2794 6.05794 20.8978 5.8999 20.5 5.8999H9V7.3999C9 7.53251 8.94732 7.65969 8.85355 7.75346C8.75979 7.84722 8.63261 7.8999 8.5 7.8999C8.36739 7.8999 8.24021 7.84722 8.14645 7.75346C8.05268 7.65969 8 7.53251 8 7.3999Z" fill="#3D3B40"/>
</svg>
