<svg width="17" height="17" viewBox="0 0 17 17" fill="none" xmlns="http://www.w3.org/2000/svg">
<path fill-rule="evenodd" clip-rule="evenodd" d="M1.93005 6.79998H4.49305C4.60355 7.22974 4.85383 7.61055 5.2045 7.88246C5.55517 8.15438 5.98631 8.30195 6.43005 8.30195C6.87379 8.30195 7.30493 8.15438 7.6556 7.88246C8.00627 7.61055 8.25656 7.22974 8.36705 6.79998H14.9301C15.0627 6.79998 15.1898 6.7473 15.2836 6.65353C15.3774 6.55976 15.4301 6.43259 15.4301 6.29998C15.4301 6.16737 15.3774 6.04019 15.2836 5.94642C15.1898 5.85266 15.0627 5.79998 14.9301 5.79998H8.36705C8.25656 5.37021 8.00627 4.9894 7.6556 4.71749C7.30493 4.44558 6.87379 4.298 6.43005 4.298C5.98631 4.298 5.55517 4.44558 5.2045 4.71749C4.85383 4.9894 4.60355 5.37021 4.49305 5.79998H1.93005C1.79745 5.79998 1.67027 5.85266 1.5765 5.94642C1.48273 6.04019 1.43005 6.16737 1.43005 6.29998C1.43005 6.43259 1.48273 6.55976 1.5765 6.65353C1.67027 6.7473 1.79745 6.79998 1.93005 6.79998ZM6.43005 5.29998C6.69527 5.29998 6.94962 5.40533 7.13716 5.59287C7.3247 5.78041 7.43005 6.03476 7.43005 6.29998C7.43005 6.56519 7.3247 6.81955 7.13716 7.00708C6.94962 7.19462 6.69527 7.29998 6.43005 7.29998C6.16484 7.29998 5.91048 7.19462 5.72295 7.00708C5.53541 6.81955 5.43005 6.56519 5.43005 6.29998C5.43005 6.03476 5.53541 5.78041 5.72295 5.59287C5.91048 5.40533 6.16484 5.29998 6.43005 5.29998ZM1.93005 10.8C1.79745 10.8 1.67027 10.8527 1.5765 10.9464C1.48273 11.0402 1.43005 11.1674 1.43005 11.3C1.43005 11.4326 1.48273 11.5598 1.5765 11.6535C1.67027 11.7473 1.79745 11.8 1.93005 11.8H8.49305C8.60355 12.2297 8.85383 12.6106 9.2045 12.8825C9.55517 13.1544 9.98631 13.302 10.4301 13.302C10.8738 13.302 11.3049 13.1544 11.6556 12.8825C12.0063 12.6106 12.2566 12.2297 12.3671 11.8H14.9301C15.0627 11.8 15.1898 11.7473 15.2836 11.6535C15.3774 11.5598 15.4301 11.4326 15.4301 11.3C15.4301 11.1674 15.3774 11.0402 15.2836 10.9464C15.1898 10.8527 15.0627 10.8 14.9301 10.8H12.3671C12.2566 10.3702 12.0063 9.9894 11.6556 9.71749C11.3049 9.44558 10.8738 9.298 10.4301 9.298C9.98631 9.298 9.55517 9.44558 9.2045 9.71749C8.85383 9.9894 8.60355 10.3702 8.49305 10.8H1.93005ZM11.4301 11.3C11.4301 11.0348 11.3247 10.7804 11.1372 10.5929C10.9496 10.4053 10.6953 10.3 10.4301 10.3C10.1648 10.3 9.91048 10.4053 9.72295 10.5929C9.53541 10.7804 9.43005 11.0348 9.43005 11.3C9.43005 11.5652 9.53541 11.8195 9.72295 12.0071C9.91048 12.1946 10.1648 12.3 10.4301 12.3C10.6953 12.3 10.9496 12.1946 11.1372 12.0071C11.3247 11.8195 11.4301 11.5652 11.4301 11.3Z" fill="#3D3B40"/>
</svg>
