<svg width="16" height="17" viewBox="0 0 16 17" fill="none" xmlns="http://www.w3.org/2000/svg">
<path fill-rule="evenodd" clip-rule="evenodd" d="M8 2.30005C7.21207 2.30005 6.43185 2.45524 5.7039 2.75677C4.97595 3.0583 4.31451 3.50026 3.75736 4.05741C3.20021 4.61456 2.75825 5.27599 2.45672 6.00395C2.15519 6.7319 2 7.51212 2 8.30005C2 9.08798 2.15519 9.8682 2.45672 10.5961C2.75825 11.3241 3.20021 11.9855 3.75736 12.5427C4.31451 13.0998 4.97595 13.5418 5.7039 13.8433C6.43185 14.1449 7.21207 14.3 8 14.3C9.5913 14.3 11.1174 13.6679 12.2426 12.5427C13.3679 11.4175 14 9.89135 14 8.30005C14 6.70875 13.3679 5.18263 12.2426 4.05741C11.1174 2.93219 9.5913 2.30005 8 2.30005ZM1 8.30005C1 6.44353 1.7375 4.66306 3.05025 3.3503C4.36301 2.03755 6.14348 1.30005 8 1.30005C9.85652 1.30005 11.637 2.03755 12.9497 3.3503C14.2625 4.66306 15 6.44353 15 8.30005C15 10.1566 14.2625 11.937 12.9497 13.2498C11.637 14.5626 9.85652 15.3 8 15.3C6.14348 15.3 4.36301 14.5626 3.05025 13.2498C1.7375 11.937 1 10.1566 1 8.30005ZM6 11.8C6 11.6674 6.05268 11.5403 6.14645 11.4465C6.24021 11.3527 6.36739 11.3 6.5 11.3H7.5V8.30005H6.5C6.36739 8.30005 6.24021 8.24737 6.14645 8.1536C6.05268 8.05983 6 7.93266 6 7.80005C6 7.66744 6.05268 7.54026 6.14645 7.4465C6.24021 7.35273 6.36739 7.30005 6.5 7.30005H8C8.13261 7.30005 8.25979 7.35273 8.35355 7.4465C8.44732 7.54026 8.5 7.66744 8.5 7.80005V11.3H9.5C9.63261 11.3 9.75979 11.3527 9.85355 11.4465C9.94732 11.5403 10 11.6674 10 11.8C10 11.9327 9.94732 12.0598 9.85355 12.1536C9.75979 12.2474 9.63261 12.3 9.5 12.3H6.5C6.36739 12.3 6.24021 12.2474 6.14645 12.1536C6.05268 12.0598 6 11.9327 6 11.8ZM7 5.30005C7 5.03483 7.10536 4.78048 7.29289 4.59294C7.48043 4.40541 7.73478 4.30005 8 4.30005C8.26522 4.30005 8.51957 4.40541 8.70711 4.59294C8.89464 4.78048 9 5.03483 9 5.30005C9 5.56527 8.89464 5.81962 8.70711 6.00716C8.51957 6.19469 8.26522 6.30005 8 6.30005C7.73478 6.30005 7.48043 6.19469 7.29289 6.00716C7.10536 5.81962 7 5.56527 7 5.30005Z" fill="#3D3B40"/>
</svg>
