<svg width="24" height="25" viewBox="0 0 24 25" fill="none" xmlns="http://www.w3.org/2000/svg">
<path fill-rule="evenodd" clip-rule="evenodd" d="M20.587 4.8769C21.537 5.1479 22.287 5.9229 22.537 6.9029C23 8.6829 23 12.3999 23 12.3999C23 12.3999 23 16.1159 22.55 17.8969C22.288 18.8899 21.55 19.6649 20.6 19.9229C18.875 20.3999 12 20.3999 12 20.3999C12 20.3999 5.125 20.3999 3.412 19.9229C2.93869 19.7842 2.5098 19.5244 2.16778 19.169C1.82576 18.8137 1.58247 18.3752 1.462 17.8969C1 16.1169 1 12.3999 1 12.3999C1 12.3999 1 8.6839 1.45 6.9029C1.712 5.9099 2.45 5.1349 3.4 4.8769C5.125 4.3999 12 4.3999 12 4.3999C12 4.3999 18.875 4.3999 20.587 4.8769ZM15.5 12.3999L9.75 15.7799V9.0199L15.5 12.3999Z" fill="#959199"/>
</svg>
