<svg width="24" height="25" viewBox="0 0 24 25" fill="none" xmlns="http://www.w3.org/2000/svg">
<path fill-rule="evenodd" clip-rule="evenodd" d="M7.668 1.8999C6.6537 1.90002 5.66918 2.24281 4.87414 2.87268C4.0791 3.50254 3.52016 4.38252 3.288 5.3699L2.04 10.6679C1.71912 10.888 1.45672 11.1829 1.27551 11.5272C1.09429 11.8715 0.999727 12.2548 1 12.6439V18.3999C1 19.0629 1.326 19.6829 1.771 20.1289C2.217 20.5739 2.837 20.8999 3.5 20.8999H4V21.8999C4 22.4303 4.21071 22.939 4.58579 23.3141C4.96086 23.6892 5.46957 23.8999 6 23.8999H7C7.53043 23.8999 8.03914 23.6892 8.41421 23.3141C8.78929 22.939 9 22.4303 9 21.8999V20.8999H15V21.8999C15 22.4303 15.2107 22.939 15.5858 23.3141C15.9609 23.6892 16.4696 23.8999 17 23.8999H18C18.5304 23.8999 19.0391 23.6892 19.4142 23.3141C19.7893 22.939 20 22.4303 20 21.8999V20.8999H20.5C21.142 20.8999 21.76 20.5709 22.206 20.1399C22.65 19.7099 23 19.1009 23 18.4499V12.6439C23 11.8239 22.587 11.1009 21.96 10.6689L20.712 5.3689C20.4796 4.38171 19.9206 3.50195 19.1256 2.87228C18.3306 2.24262 17.3462 1.89997 16.332 1.8999H7.668ZM20.983 10.8859L19.739 5.5979C19.5582 4.83005 19.1234 4.14578 18.505 3.65605C17.8866 3.16633 17.1208 2.89987 16.332 2.8999H7.668C6.87916 2.89987 6.11344 3.16633 5.49502 3.65605C4.87661 4.14578 4.44176 4.83005 4.261 5.5979L3.017 10.8859C3.149 10.9739 3.44 11.1229 4.048 11.2799C5.26 11.5929 7.584 11.8999 12 11.8999C16.416 11.8999 18.74 11.5929 19.952 11.2799C20.56 11.1229 20.851 10.9739 20.983 10.8859ZM2.395 11.6709C2.14117 11.9311 1.99937 12.2804 2 12.6439V18.3999C2 18.7369 2.174 19.1169 2.479 19.4209C2.783 19.7259 3.163 19.8999 3.5 19.8999H20.5C20.812 19.8999 21.194 19.7279 21.51 19.4219C21.827 19.1149 22 18.7489 22 18.4499V12.6439C22 12.2669 21.85 11.9239 21.605 11.6709C21.323 11.8749 20.881 12.0729 20.202 12.2479C18.868 12.5929 16.445 12.8999 12 12.8999C7.555 12.8999 5.131 12.5929 3.798 12.2479C3.119 12.0729 2.677 11.8749 2.395 11.6709ZM5 20.8999V21.8999C5 22.1651 5.10536 22.4195 5.29289 22.607C5.48043 22.7945 5.73478 22.8999 6 22.8999H7C7.26522 22.8999 7.51957 22.7945 7.70711 22.607C7.89464 22.4195 8 22.1651 8 21.8999V20.8999H5ZM16 21.8999V20.8999H19V21.8999C19 22.1651 18.8946 22.4195 18.7071 22.607C18.5196 22.7945 18.2652 22.8999 18 22.8999H17C16.7348 22.8999 16.4804 22.7945 16.2929 22.607C16.1054 22.4195 16 22.1651 16 21.8999ZM6 16.8999C6.26522 16.8999 6.51957 16.7945 6.70711 16.607C6.89464 16.4195 7 16.1651 7 15.8999C7 15.6347 6.89464 15.3803 6.70711 15.1928C6.51957 15.0053 6.26522 14.8999 6 14.8999C5.73478 14.8999 5.48043 15.0053 5.29289 15.1928C5.10536 15.3803 5 15.6347 5 15.8999C5 16.1651 5.10536 16.4195 5.29289 16.607C5.48043 16.7945 5.73478 16.8999 6 16.8999ZM8 15.8999C8 16.4303 7.78929 16.939 7.41421 17.3141C7.03914 17.6892 6.53043 17.8999 6 17.8999C5.46957 17.8999 4.96086 17.6892 4.58579 17.3141C4.21071 16.939 4 16.4303 4 15.8999C4 15.3695 4.21071 14.8608 4.58579 14.4857C4.96086 14.1106 5.46957 13.8999 6 13.8999C6.53043 13.8999 7.03914 14.1106 7.41421 14.4857C7.78929 14.8608 8 15.3695 8 15.8999ZM19 15.8999C19 16.1651 18.8946 16.4195 18.7071 16.607C18.5196 16.7945 18.2652 16.8999 18 16.8999C17.7348 16.8999 17.4804 16.7945 17.2929 16.607C17.1054 16.4195 17 16.1651 17 15.8999C17 15.6347 17.1054 15.3803 17.2929 15.1928C17.4804 15.0053 17.7348 14.8999 18 14.8999C18.2652 14.8999 18.5196 15.0053 18.7071 15.1928C18.8946 15.3803 19 15.6347 19 15.8999ZM18 17.8999C18.5304 17.8999 19.0391 17.6892 19.4142 17.3141C19.7893 16.939 20 16.4303 20 15.8999C20 15.3695 19.7893 14.8608 19.4142 14.4857C19.0391 14.1106 18.5304 13.8999 18 13.8999C17.4696 13.8999 16.9609 14.1106 16.5858 14.4857C16.2107 14.8608 16 15.3695 16 15.8999C16 16.4303 16.2107 16.939 16.5858 17.3141C16.9609 17.6892 17.4696 17.8999 18 17.8999ZM10 16.3999C10 16.2673 10.0527 16.1401 10.1464 16.0463C10.2402 15.9526 10.3674 15.8999 10.5 15.8999H13.5C13.6326 15.8999 13.7598 15.9526 13.8536 16.0463C13.9473 16.1401 14 16.2673 14 16.3999C14 16.5325 13.9473 16.6597 13.8536 16.7535C13.7598 16.8472 13.6326 16.8999 13.5 16.8999H10.5C10.3674 16.8999 10.2402 16.8472 10.1464 16.7535C10.0527 16.6597 10 16.5325 10 16.3999Z" fill="#3D3B40"/>
</svg>
