<svg width="17" height="17" viewBox="0 0 17 17" fill="none" xmlns="http://www.w3.org/2000/svg">
<path fill-rule="evenodd" clip-rule="evenodd" d="M14.5996 1.6001C14.7322 1.6001 14.8594 1.65278 14.9532 1.74654C15.0469 1.84031 15.0996 1.96749 15.0996 2.1001V4.1001C15.0996 4.23271 15.0469 4.35988 14.9532 4.45365C14.8594 4.54742 14.7322 4.6001 14.5996 4.6001C14.467 4.6001 14.3398 4.54742 14.2461 4.45365C14.1523 4.35988 14.0996 4.23271 14.0996 4.1001V3.6001H6.09961V4.1001C6.09961 4.23271 6.04693 4.35988 5.95316 4.45365C5.85939 4.54742 5.73222 4.6001 5.59961 4.6001C5.467 4.6001 5.33982 4.54742 5.24606 4.45365C5.15229 4.35988 5.09961 4.23271 5.09961 4.1001V2.1001C5.09961 1.96749 5.15229 1.84031 5.24606 1.74654C5.33982 1.65278 5.467 1.6001 5.59961 1.6001C5.73222 1.6001 5.85939 1.65278 5.95316 1.74654C6.04693 1.84031 6.09961 1.96749 6.09961 2.1001V2.6001H14.0996V2.1001C14.0996 1.96749 14.1523 1.84031 14.2461 1.74654C14.3398 1.65278 14.467 1.6001 14.5996 1.6001ZM5.09961 7.1001C5.09961 6.70227 5.25764 6.32074 5.53895 6.03944C5.82025 5.75813 6.20178 5.6001 6.59961 5.6001H13.5996C13.9974 5.6001 14.379 5.75813 14.6603 6.03944C14.9416 6.32074 15.0996 6.70227 15.0996 7.1001V14.1001C15.0996 14.4979 14.9416 14.8795 14.6603 15.1608C14.379 15.4421 13.9974 15.6001 13.5996 15.6001H6.59961C6.20178 15.6001 5.82025 15.4421 5.53895 15.1608C5.25764 14.8795 5.09961 14.4979 5.09961 14.1001V7.1001ZM6.59961 6.6001C6.467 6.6001 6.33982 6.65278 6.24606 6.74654C6.15229 6.84031 6.09961 6.96749 6.09961 7.1001V14.1001C6.09961 14.2327 6.15229 14.3599 6.24606 14.4537C6.33982 14.5474 6.467 14.6001 6.59961 14.6001H13.5996C13.7322 14.6001 13.8594 14.5474 13.9532 14.4537C14.0469 14.3599 14.0996 14.2327 14.0996 14.1001V7.1001C14.0996 6.96749 14.0469 6.84031 13.9532 6.74654C13.8594 6.65278 13.7322 6.6001 13.5996 6.6001H6.59961ZM3.59961 15.6001C3.73222 15.6001 3.85939 15.5474 3.95316 15.4537C4.04693 15.3599 4.09961 15.2327 4.09961 15.1001C4.09961 14.9675 4.04693 14.8403 3.95316 14.7465C3.85939 14.6528 3.73222 14.6001 3.59961 14.6001H3.09961V6.6001H3.59961C3.73222 6.6001 3.85939 6.54742 3.95316 6.45365C4.04693 6.35988 4.09961 6.23271 4.09961 6.1001C4.09961 5.96749 4.04693 5.84031 3.95316 5.74654C3.85939 5.65278 3.73222 5.6001 3.59961 5.6001H1.59961C1.467 5.6001 1.33982 5.65278 1.24606 5.74654C1.15229 5.84031 1.09961 5.96749 1.09961 6.1001C1.09961 6.23271 1.15229 6.35988 1.24606 6.45365C1.33982 6.54742 1.467 6.6001 1.59961 6.6001H2.09961V14.6001H1.59961C1.467 14.6001 1.33982 14.6528 1.24606 14.7465C1.15229 14.8403 1.09961 14.9675 1.09961 15.1001C1.09961 15.2327 1.15229 15.3599 1.24606 15.4537C1.33982 15.5474 1.467 15.6001 1.59961 15.6001H3.59961Z" fill="#3D3B40"/>
</svg>
