<svg width="16" height="17" viewBox="0 0 16 17" fill="none" xmlns="http://www.w3.org/2000/svg">
<path fill-rule="evenodd" clip-rule="evenodd" d="M6.42 3.50605L8 1.80005L9.58 3.50605L11.823 2.93405L12.24 5.23305L14.433 5.97705L13.553 8.13805L15 9.96205L13.104 11.3L13.344 13.623L11.034 13.713L9.992 15.8L8 14.613L6.008 15.8L4.967 13.714L2.655 13.624L2.896 11.3L1 9.96205L2.446 8.13805L1.567 5.97705L3.76 5.23305L4.177 2.93405L6.42 3.50605ZM11.354 7.15405C11.4479 7.06016 11.5006 6.93282 11.5006 6.80005C11.5006 6.66727 11.4479 6.53994 11.354 6.44605C11.2601 6.35216 11.1328 6.29942 11 6.29942C10.8672 6.29942 10.7399 6.35216 10.646 6.44605L6.5 10.593L4.854 8.94605C4.80751 8.89956 4.75232 8.86268 4.69158 8.83753C4.63084 8.81237 4.56574 8.79942 4.5 8.79942C4.43426 8.79942 4.36916 8.81237 4.30842 8.83753C4.24768 8.86268 4.19249 8.89956 4.146 8.94605C4.09951 8.99254 4.06264 9.04773 4.03748 9.10847C4.01232 9.1692 3.99937 9.2343 3.99937 9.30005C3.99937 9.36579 4.01232 9.43089 4.03748 9.49163C4.06264 9.55237 4.09951 9.60756 4.146 9.65405L6.146 11.654C6.19245 11.7006 6.24762 11.7376 6.30837 11.7628C6.36911 11.788 6.43423 11.8009 6.5 11.8009C6.56577 11.8009 6.63089 11.788 6.69163 11.7628C6.75238 11.7376 6.80755 11.7006 6.854 11.654L11.354 7.15405Z" fill="#333F48"/>
</svg>
