<svg width="17" height="17" viewBox="0 0 17 17" fill="none" xmlns="http://www.w3.org/2000/svg">
<path fill-rule="evenodd" clip-rule="evenodd" d="M5.39689 1.74577C5.44334 1.69921 5.49851 1.66226 5.55926 1.63706C5.62001 1.61185 5.68513 1.59888 5.75089 1.59888C5.81666 1.59888 5.88178 1.61185 5.94253 1.63706C6.00327 1.66226 6.05845 1.69921 6.10489 1.74577L12.6049 8.24577C12.6515 8.29222 12.6884 8.34739 12.7136 8.40814C12.7388 8.46888 12.7518 8.534 12.7518 8.59977C12.7518 8.66554 12.7388 8.73066 12.7136 8.7914C12.6884 8.85215 12.6515 8.90732 12.6049 8.95377L6.10489 15.4538C6.05841 15.5003 6.00322 15.5371 5.94248 15.5623C5.88174 15.5875 5.81664 15.6004 5.75089 15.6004C5.68515 15.6004 5.62005 15.5875 5.55931 15.5623C5.49857 15.5371 5.44338 15.5003 5.39689 15.4538C5.35041 15.4073 5.31353 15.3521 5.28837 15.2914C5.26321 15.2306 5.25026 15.1655 5.25026 15.0998C5.25026 15.034 5.26321 14.9689 5.28837 14.9082C5.31353 14.8474 5.35041 14.7923 5.39689 14.7458L11.5439 8.59977L5.39689 2.45377C5.35033 2.40733 5.31339 2.35215 5.28818 2.2914C5.26297 2.23066 5.25 2.16554 5.25 2.09977C5.25 2.034 5.26297 1.96888 5.28818 1.90814C5.31339 1.84739 5.35033 1.79222 5.39689 1.74577Z" fill="#3D3B40"/>
</svg>
