<svg width="24" height="25" viewBox="0 0 24 25" fill="none" xmlns="http://www.w3.org/2000/svg">
<path fill-rule="evenodd" clip-rule="evenodd" d="M5 3.3999C5 3.26729 5.05268 3.14012 5.14645 3.04635C5.24021 2.95258 5.36739 2.8999 5.5 2.8999H18.5C18.6326 2.8999 18.7598 2.95258 18.8536 3.04635C18.9473 3.14012 19 3.26729 19 3.3999V6.8999H18.5V5.3999C18.5 5.00208 18.342 4.62055 18.0607 4.33924C17.7794 4.05794 17.3978 3.8999 17 3.8999H14C13.6022 3.8999 13.2206 4.05794 12.9393 4.33924C12.658 4.62055 12.5 5.00208 12.5 5.3999V6.8999H11.5V5.3999C11.5 5.00208 11.342 4.62055 11.0607 4.33924C10.7794 4.05794 10.3978 3.8999 10 3.8999H7C6.60218 3.8999 6.22064 4.05794 5.93934 4.33924C5.65804 4.62055 5.5 5.00208 5.5 5.3999V6.8999H5V3.3999ZM18 7.8999H19.128L21.828 16.8999H2.172L4.872 7.8999H18ZM2 17.8999H22V19.3999C22 19.7977 21.842 20.1793 21.5607 20.4606C21.2794 20.7419 20.8978 20.8999 20.5 20.8999H3.5C3.10218 20.8999 2.72064 20.7419 2.43934 20.4606C2.15804 20.1793 2 19.7977 2 19.3999V17.8999ZM4 3.3999V7.3269L1.021 17.2569C1.00711 17.3033 1.00004 17.3515 1 17.3999V19.3999C1 20.0629 1.26339 20.6988 1.73223 21.1677C2.20107 21.6365 2.83696 21.8999 3.5 21.8999H4V23.3999C4 23.5325 4.05268 23.6597 4.14645 23.7535C4.24021 23.8472 4.36739 23.8999 4.5 23.8999C4.63261 23.8999 4.75979 23.8472 4.85355 23.7535C4.94732 23.6597 5 23.5325 5 23.3999V21.8999H19V23.3999C19 23.5325 19.0527 23.6597 19.1464 23.7535C19.2402 23.8472 19.3674 23.8999 19.5 23.8999C19.6326 23.8999 19.7598 23.8472 19.8536 23.7535C19.9473 23.6597 20 23.5325 20 23.3999V21.8999H20.5C21.163 21.8999 21.7989 21.6365 22.2678 21.1677C22.7366 20.6988 23 20.0629 23 19.3999V17.3999C23.0001 17.3511 22.993 17.3026 22.979 17.2559L20 7.3259V3.3999C20 3.00208 19.842 2.62055 19.5607 2.33924C19.2794 2.05794 18.8978 1.8999 18.5 1.8999H5.5C5.10218 1.8999 4.72064 2.05794 4.43934 2.33924C4.15804 2.62055 4 3.00208 4 3.3999ZM17.5 5.3999V6.8999H13.5V5.3999C13.5 5.26729 13.5527 5.14012 13.6464 5.04635C13.7402 4.95258 13.8674 4.8999 14 4.8999H17C17.1326 4.8999 17.2598 4.95258 17.3536 5.04635C17.4473 5.14012 17.5 5.26729 17.5 5.3999ZM10.5 5.3999V6.8999H6.5V5.3999C6.5 5.26729 6.55268 5.14012 6.64645 5.04635C6.74021 4.95258 6.86739 4.8999 7 4.8999H10C10.1326 4.8999 10.2598 4.95258 10.3536 5.04635C10.4473 5.14012 10.5 5.26729 10.5 5.3999Z" fill="#3D3B40"/>
</svg>
