<svg width="17" height="17" viewBox="0 0 17 17" fill="none" xmlns="http://www.w3.org/2000/svg">
<path fill-rule="evenodd" clip-rule="evenodd" d="M5.85977 2.7C5.90634 2.6379 5.96673 2.5875 6.03616 2.55279C6.10559 2.51807 6.18214 2.5 6.25977 2.5H10.2598C10.3374 2.5 10.4139 2.51807 10.4834 2.55279C10.5528 2.5875 10.6132 2.6379 10.6598 2.7L12.0098 4.5H12.7598C13.4228 4.5 14.0587 4.76339 14.5275 5.23223C14.9964 5.70107 15.2598 6.33696 15.2598 7V11C15.2598 11.663 14.9964 12.2989 14.5275 12.7678C14.0587 13.2366 13.4228 13.5 12.7598 13.5H3.75977C3.09672 13.5 2.46084 13.2366 1.992 12.7678C1.52316 12.2989 1.25977 11.663 1.25977 11V7C1.25977 6.33696 1.52316 5.70107 1.992 5.23223C2.46084 4.76339 3.09672 4.5 3.75977 4.5H4.50977L5.85977 2.7ZM6.50977 3.5L5.15977 5.3C5.11319 5.3621 5.0528 5.4125 4.98337 5.44721C4.91394 5.48193 4.83739 5.5 4.75977 5.5H3.75977C3.36194 5.5 2.98041 5.65804 2.69911 5.93934C2.4178 6.22064 2.25977 6.60218 2.25977 7V11C2.25977 11.3978 2.4178 11.7794 2.69911 12.0607C2.98041 12.342 3.36194 12.5 3.75977 12.5H12.7598C13.1576 12.5 13.5391 12.342 13.8204 12.0607C14.1017 11.7794 14.2598 11.3978 14.2598 11V7C14.2598 6.60218 14.1017 6.22064 13.8204 5.93934C13.5391 5.65804 13.1576 5.5 12.7598 5.5H11.7598C11.6821 5.5 11.6056 5.48193 11.5362 5.44721C11.4667 5.4125 11.4063 5.3621 11.3598 5.3L10.0098 3.5H6.50977ZM5.25977 8.5C5.25977 7.70435 5.57584 6.94129 6.13845 6.37868C6.70105 5.81607 7.46412 5.5 8.25977 5.5C9.05542 5.5 9.81848 5.81607 10.3811 6.37868C10.9437 6.94129 11.2598 7.70435 11.2598 8.5C11.2598 9.29565 10.9437 10.0587 10.3811 10.6213C9.81848 11.1839 9.05542 11.5 8.25977 11.5C7.46412 11.5 6.70105 11.1839 6.13845 10.6213C5.57584 10.0587 5.25977 9.29565 5.25977 8.5ZM8.25977 6.5C7.72933 6.5 7.22062 6.71071 6.84555 7.08579C6.47048 7.46086 6.25977 7.96957 6.25977 8.5C6.25977 9.03043 6.47048 9.53914 6.84555 9.91421C7.22062 10.2893 7.72933 10.5 8.25977 10.5C8.7902 10.5 9.29891 10.2893 9.67398 9.91421C10.0491 9.53914 10.2598 9.03043 10.2598 8.5C10.2598 7.96957 10.0491 7.46086 9.67398 7.08579C9.29891 6.71071 8.7902 6.5 8.25977 6.5ZM13.2598 7C13.2598 7.13261 13.2071 7.25979 13.1133 7.35355C13.0196 7.44732 12.8924 7.5 12.7598 7.5C12.6272 7.5 12.5 7.44732 12.4062 7.35355C12.3124 7.25979 12.2598 7.13261 12.2598 7C12.2598 6.86739 12.3124 6.74021 12.4062 6.64645C12.5 6.55268 12.6272 6.5 12.7598 6.5C12.8924 6.5 13.0196 6.55268 13.1133 6.64645C13.2071 6.74021 13.2598 6.86739 13.2598 7Z" fill="#3D3B40"/>
</svg>
