<svg width="16" height="17" viewBox="0 0 16 17" fill="none" xmlns="http://www.w3.org/2000/svg">
<path fill-rule="evenodd" clip-rule="evenodd" d="M7.64663 2.24583C7.69308 2.19927 7.74825 2.16233 7.809 2.13712C7.86974 2.11191 7.93486 2.09894 8.00063 2.09894C8.0664 2.09894 8.13152 2.11191 8.19226 2.13712C8.25301 2.16233 8.30819 2.19927 8.35463 2.24583L13.3546 7.24583C13.4485 7.33972 13.5013 7.46706 13.5013 7.59983C13.5013 7.73261 13.4485 7.85994 13.3546 7.95383C13.2607 8.04772 13.1334 8.10046 13.0006 8.10046C12.8679 8.10046 12.7405 8.04772 12.6466 7.95383L8.50063 3.80683V13.5998C8.50063 13.7324 8.44795 13.8596 8.35419 13.9534C8.26042 14.0472 8.13324 14.0998 8.00063 14.0998C7.86802 14.0998 7.74085 14.0472 7.64708 13.9534C7.55331 13.8596 7.50063 13.7324 7.50063 13.5998V3.80683L3.35463 7.95383C3.26075 8.04772 3.13341 8.10046 3.00063 8.10046C2.86786 8.10046 2.74052 8.04772 2.64663 7.95383C2.55274 7.85994 2.5 7.73261 2.5 7.59983C2.5 7.46706 2.55274 7.33972 2.64663 7.24583L7.64663 2.24583Z" fill="#137044"/>
</svg>
