<svg width="16" height="17" viewBox="0 0 16 17" fill="none" xmlns="http://www.w3.org/2000/svg">
<path fill-rule="evenodd" clip-rule="evenodd" d="M4.64689 2.04594C4.69334 1.99938 4.74851 1.96244 4.80926 1.93723C4.87001 1.91202 4.93513 1.89905 5.00089 1.89905C5.06666 1.89905 5.13178 1.91202 5.19253 1.93723C5.25327 1.96244 5.30845 1.99938 5.35489 2.04594L11.8549 8.54594C11.9015 8.59239 11.9384 8.64756 11.9636 8.70831C11.9888 8.76905 12.0018 8.83417 12.0018 8.89994C12.0018 8.96571 11.9888 9.03083 11.9636 9.09157C11.9384 9.15232 11.9015 9.2075 11.8549 9.25394L5.35489 15.7539C5.30841 15.8004 5.25322 15.8373 5.19248 15.8625C5.13174 15.8876 5.06664 15.9006 5.00089 15.9006C4.93515 15.9006 4.87005 15.8876 4.80931 15.8625C4.74857 15.8373 4.69338 15.8004 4.64689 15.7539C4.60041 15.7075 4.56353 15.6523 4.53837 15.5915C4.51321 15.5308 4.50026 15.4657 4.50026 15.3999C4.50026 15.3342 4.51321 15.2691 4.53837 15.2084C4.56353 15.1476 4.60041 15.0924 4.64689 15.0459L10.7939 8.89994L4.64689 2.75394C4.60033 2.7075 4.56339 2.65232 4.53818 2.59158C4.51297 2.53083 4.5 2.46571 4.5 2.39994C4.5 2.33417 4.51297 2.26905 4.53818 2.20831C4.56339 2.14756 4.60033 2.09239 4.64689 2.04594Z" fill="white"/>
</svg>
