<svg width="24" height="25" viewBox="0 0 24 25" fill="none" xmlns="http://www.w3.org/2000/svg">
<path fill-rule="evenodd" clip-rule="evenodd" d="M21.5 1.8999C21.6326 1.8999 21.7598 1.95258 21.8536 2.04635C21.9473 2.14012 22 2.26729 22 2.3999V4.3999C22 4.53251 21.9473 4.65969 21.8536 4.75346C21.7598 4.84722 21.6326 4.8999 21.5 4.8999C21.3674 4.8999 21.2402 4.84722 21.1464 4.75346C21.0527 4.65969 21 4.53251 21 4.3999V3.8999H7V4.3999C7 4.53251 6.94732 4.65969 6.85355 4.75346C6.75979 4.84722 6.63261 4.8999 6.5 4.8999C6.36739 4.8999 6.24021 4.84722 6.14645 4.75346C6.05268 4.65969 6 4.53251 6 4.3999V2.3999C6 2.26729 6.05268 2.14012 6.14645 2.04635C6.24021 1.95258 6.36739 1.8999 6.5 1.8999C6.63261 1.8999 6.75979 1.95258 6.85355 2.04635C6.94732 2.14012 7 2.26729 7 2.3999V2.8999H21V2.3999C21 2.26729 21.0527 2.14012 21.1464 2.04635C21.2402 1.95258 21.3674 1.8999 21.5 1.8999ZM6 9.3999C6 8.73686 6.26339 8.10098 6.73223 7.63214C7.20107 7.16329 7.83696 6.8999 8.5 6.8999H19.5C20.163 6.8999 20.7989 7.16329 21.2678 7.63214C21.7366 8.10098 22 8.73686 22 9.3999V20.3999C22 21.0629 21.7366 21.6988 21.2678 22.1677C20.7989 22.6365 20.163 22.8999 19.5 22.8999H8.5C7.83696 22.8999 7.20107 22.6365 6.73223 22.1677C6.26339 21.6988 6 21.0629 6 20.3999V9.3999ZM8.5 7.8999C8.10218 7.8999 7.72064 8.05794 7.43934 8.33924C7.15804 8.62055 7 9.00208 7 9.3999V20.3999C7 20.7977 7.15804 21.1793 7.43934 21.4606C7.72064 21.7419 8.10218 21.8999 8.5 21.8999H19.5C19.8978 21.8999 20.2794 21.7419 20.5607 21.4606C20.842 21.1793 21 20.7977 21 20.3999V9.3999C21 9.00208 20.842 8.62055 20.5607 8.33924C20.2794 8.05794 19.8978 7.8999 19.5 7.8999H8.5ZM3.5 22.8999C3.63261 22.8999 3.75979 22.8472 3.85355 22.7535C3.94732 22.6597 4 22.5325 4 22.3999C4 22.2673 3.94732 22.1401 3.85355 22.0463C3.75979 21.9526 3.63261 21.8999 3.5 21.8999H3V7.8999H3.5C3.63261 7.8999 3.75979 7.84722 3.85355 7.75346C3.94732 7.65969 4 7.53251 4 7.3999C4 7.26729 3.94732 7.14012 3.85355 7.04635C3.75979 6.95258 3.63261 6.8999 3.5 6.8999H1.5C1.36739 6.8999 1.24021 6.95258 1.14645 7.04635C1.05268 7.14012 1 7.26729 1 7.3999C1 7.53251 1.05268 7.65969 1.14645 7.75346C1.24021 7.84722 1.36739 7.8999 1.5 7.8999H2V21.8999H1.5C1.36739 21.8999 1.24021 21.9526 1.14645 22.0463C1.05268 22.1401 1 22.2673 1 22.3999C1 22.5325 1.05268 22.6597 1.14645 22.7535C1.24021 22.8472 1.36739 22.8999 1.5 22.8999H3.5Z" fill="#3D3B40"/>
</svg>
