<svg width="17" height="17" viewBox="0 0 17 17" fill="none" xmlns="http://www.w3.org/2000/svg">
<path fill-rule="evenodd" clip-rule="evenodd" d="M5.17033 1.74601C5.21678 1.69945 5.27195 1.66251 5.3327 1.6373C5.39344 1.6121 5.45856 1.59912 5.52433 1.59912C5.5901 1.59912 5.65522 1.6121 5.71596 1.6373C5.77671 1.66251 5.83189 1.69945 5.87833 1.74601L12.3783 8.24601C12.4249 8.29246 12.4618 8.34764 12.487 8.40838C12.5122 8.46913 12.5252 8.53425 12.5252 8.60001C12.5252 8.66578 12.5122 8.7309 12.487 8.79165C12.4618 8.85239 12.4249 8.90757 12.3783 8.95401L5.87833 15.454C5.83184 15.5005 5.77665 15.5374 5.71591 15.5625C5.65518 15.5877 5.59007 15.6006 5.52433 15.6006C5.45859 15.6006 5.39349 15.5877 5.33275 15.5625C5.27201 15.5374 5.21682 15.5005 5.17033 15.454C5.12384 15.4075 5.08697 15.3523 5.06181 15.2916C5.03665 15.2309 5.0237 15.1658 5.0237 15.1C5.0237 15.0343 5.03665 14.9692 5.06181 14.9084C5.08697 14.8477 5.12384 14.7925 5.17033 14.746L11.3173 8.60001L5.17033 2.45401C5.12377 2.40757 5.08682 2.35239 5.06162 2.29165C5.03641 2.2309 5.02344 2.16578 5.02344 2.10001C5.02344 2.03425 5.03641 1.96913 5.06162 1.90838C5.08682 1.84764 5.12377 1.79246 5.17033 1.74601Z" fill="white"/>
</svg>
