<svg width="17" height="17" viewBox="0 0 17 17" fill="none" xmlns="http://www.w3.org/2000/svg">
<path fill-rule="evenodd" clip-rule="evenodd" d="M4.59961 2.6001C4.467 2.6001 4.33982 2.65278 4.24606 2.74654C4.15229 2.84031 4.09961 2.96749 4.09961 3.1001V5.6001H5.20161L5.22561 5.0371C5.24185 4.65064 5.40676 4.28539 5.68589 4.01763C5.96503 3.74986 6.33681 3.60027 6.72361 3.6001H9.47761C9.86476 3.59976 10.237 3.74911 10.5166 4.01693C10.7962 4.28475 10.9613 4.65029 10.9776 5.0371L10.9996 5.6001H12.0996V3.1001C12.0996 2.96749 12.0469 2.84031 11.9532 2.74654C11.8594 2.65278 11.7322 2.6001 11.5996 2.6001H4.59961ZM10.5206 6.6001H4.02361L3.18961 11.6001H13.0096L12.1756 6.6001H10.5206ZM9.99961 5.6001L9.97761 5.0791C9.97219 4.95016 9.91713 4.82832 9.82394 4.73904C9.73075 4.64977 9.60666 4.59998 9.47761 4.6001H6.72461C6.59556 4.59998 6.47147 4.64977 6.37828 4.73904C6.28509 4.82832 6.23003 4.95016 6.22461 5.0791L6.20261 5.6001H9.99961ZM13.0996 12.6001H3.09961V13.1001C3.09961 13.2327 3.15229 13.3599 3.24606 13.4537C3.33982 13.5474 3.467 13.6001 3.59961 13.6001H12.5996C12.7322 13.6001 12.8594 13.5474 12.9532 13.4537C13.0469 13.3599 13.0996 13.2327 13.0996 13.1001V12.6001ZM3.09961 6.0591V3.1001C3.09961 2.70227 3.25764 2.32074 3.53895 2.03944C3.82025 1.75813 4.20178 1.6001 4.59961 1.6001H11.5996C11.9974 1.6001 12.379 1.75813 12.6603 2.03944C12.9416 2.32074 13.0996 2.70227 13.0996 3.1001V6.0591L14.0926 12.0181C14.0972 12.0452 14.0995 12.0726 14.0996 12.1001V13.1001C14.0996 13.4979 13.9416 13.8795 13.6603 14.1608C13.379 14.4421 12.9974 14.6001 12.5996 14.6001H12.1016V15.1001C12.1016 15.2327 12.0489 15.3599 11.9552 15.4537C11.8614 15.5474 11.7342 15.6001 11.6016 15.6001C11.469 15.6001 11.3418 15.5474 11.2481 15.4537C11.1543 15.3599 11.1016 15.2327 11.1016 15.1001V14.6001H5.10161V15.1001C5.10161 15.2327 5.04893 15.3599 4.95516 15.4537C4.86139 15.5474 4.73422 15.6001 4.60161 15.6001C4.469 15.6001 4.34182 15.5474 4.24806 15.4537C4.15429 15.3599 4.10161 15.2327 4.10161 15.1001V14.6001H3.59961C3.20178 14.6001 2.82025 14.4421 2.53895 14.1608C2.25764 13.8795 2.09961 13.4979 2.09961 13.1001V12.1001C2.09961 12.0731 2.10161 12.0451 2.10661 12.0181L3.09961 6.0591Z" fill="#3D3B40"/>
</svg>
