<svg width="24" height="25" viewBox="0 0 24 25" fill="none" xmlns="http://www.w3.org/2000/svg">
<path fill-rule="evenodd" clip-rule="evenodd" d="M8.275 20.6619C15.827 20.6619 19.957 14.4039 19.957 8.98093C19.957 8.80093 19.957 8.62293 19.948 8.45293C20.7524 7.87 21.4471 7.1492 22 6.32393C21.2501 6.65436 20.4555 6.87238 19.642 6.97093C20.5005 6.45849 21.1424 5.65021 21.447 4.69793C20.6406 5.17432 19.7596 5.51106 18.841 5.69393C18.4572 5.28383 17.993 4.95727 17.4773 4.73463C16.9617 4.51199 16.4057 4.39805 15.844 4.39993C14.7557 4.40046 13.7122 4.83301 12.9426 5.60254C12.1731 6.37208 11.7405 7.41564 11.74 8.50393C11.74 8.82693 11.774 9.14193 11.851 9.43993C10.2183 9.35881 8.62093 8.93491 7.16284 8.19578C5.70475 7.45666 4.41859 6.41887 3.388 5.14993C3.02564 5.77603 2.83457 6.48652 2.834 7.20993C2.834 8.63193 3.558 9.89193 4.665 10.6239C4.01423 10.6063 3.37742 10.4313 2.809 10.1139V10.1639C2.80932 11.1123 3.13757 12.0313 3.73811 12.7652C4.33864 13.4992 5.17451 14.0029 6.104 14.1909C5.49881 14.3559 4.86378 14.3795 4.248 14.2599C4.5086 15.0759 5.01824 15.7898 5.70535 16.3013C6.39246 16.8129 7.22253 17.0963 8.079 17.1119C6.35709 18.4596 4.17073 19.0689 2 18.8059C3.86629 20.0225 6.04722 20.6676 8.275 20.6619Z" fill="#959199"/>
</svg>
