<svg width="24" height="25" viewBox="0 0 24 25" fill="none" xmlns="http://www.w3.org/2000/svg">
<path fill-rule="evenodd" clip-rule="evenodd" d="M20.003 14.8999H20V5.39989C20.002 4.51062 19.6654 3.65394 19.0586 3.00386C18.4518 2.35378 17.6203 1.95905 16.733 1.89986C15.8457 1.84066 14.9691 2.12144 14.2814 2.68515C13.5936 3.24886 13.1462 4.05323 13.03 4.93489C12.134 5.07089 11.429 5.57489 10.949 6.04089C10.6173 6.36451 10.3264 6.72755 10.083 7.12189L10.07 7.14389L10.066 7.15089V7.15289L10.065 7.15389L10.5 7.39989L10.064 7.15489C10.0212 7.23098 9.99912 7.31695 9.99988 7.40424C10.0006 7.49153 10.0242 7.5771 10.0683 7.65243C10.1124 7.72777 10.1755 7.79026 10.2512 7.83367C10.3269 7.87708 10.4127 7.89991 10.5 7.89989H16.5C16.5873 7.89991 16.6731 7.87708 16.7488 7.83367C16.8245 7.79026 16.8876 7.72777 16.9317 7.65243C16.9758 7.5771 16.9994 7.49153 17.0001 7.40424C17.0009 7.31695 16.9788 7.23098 16.936 7.15489L16.935 7.15289L16.934 7.15089L16.93 7.14389L16.917 7.12189C16.8493 7.01009 16.7773 6.901 16.701 6.79489C16.5068 6.525 16.2893 6.27269 16.051 6.04089C15.584 5.58789 14.904 5.09789 14.041 4.94689C14.1536 4.33309 14.4916 3.78358 14.9887 3.40633C15.4858 3.02909 16.106 2.85139 16.7274 2.90816C17.3489 2.96493 17.9266 3.25205 18.3471 3.71312C18.7676 4.17419 19.0005 4.77586 19 5.39989V14.8999H2.5C2.36739 14.8999 2.24021 14.9526 2.14645 15.0463C2.05268 15.1401 2 15.2673 2 15.3999V15.4309L2.003 15.5009C2.02604 15.8722 2.07887 16.241 2.161 16.6039C2.36852 17.5246 2.74598 18.3986 3.274 19.1809C3.94289 20.1594 4.83294 20.9666 5.872 21.5369L5.052 23.1769C5.02265 23.2357 5.00516 23.2996 5.00053 23.3652C4.99591 23.4307 5.00423 23.4965 5.02503 23.5588C5.04583 23.6211 5.0787 23.6787 5.12176 23.7283C5.16482 23.7779 5.21723 23.8185 5.276 23.8479C5.33477 23.8772 5.39874 23.8947 5.46426 23.8994C5.52979 23.904 5.59558 23.8957 5.65789 23.8749C5.7202 23.8541 5.7778 23.8212 5.82741 23.7781C5.87701 23.7351 5.91765 23.6827 5.947 23.6239L6.771 21.9749C8.114 22.5409 9.825 22.8999 12 22.8999C14.175 22.8999 15.886 22.5409 17.229 21.9749L18.053 23.6239C18.0821 23.6831 18.1226 23.736 18.1723 23.7795C18.2219 23.8229 18.2797 23.8562 18.3422 23.8772C18.4047 23.8983 18.4708 23.9067 18.5367 23.9021C18.6025 23.8975 18.6667 23.8799 18.7257 23.8504C18.7847 23.8208 18.8373 23.7799 18.8804 23.7299C18.9235 23.6799 18.9563 23.6219 18.9768 23.5592C18.9974 23.4965 19.0053 23.4304 19.0002 23.3646C18.9951 23.2988 18.977 23.2346 18.947 23.1759L18.127 21.5369C19.1668 20.9668 20.0576 20.1597 20.727 19.1809C21.4176 18.1559 21.8474 16.9778 21.979 15.7489C21.9892 15.6431 21.9958 15.5371 21.999 15.4309V15.4109L22 15.4039V15.3999L21.5 15.3989H22C22 15.2663 21.9473 15.1391 21.8536 15.0453C21.7598 14.9516 21.6326 14.8989 21.5 14.8989H20.002L20.003 14.8999ZM20.953 15.8999H3.047C3.19094 16.874 3.55145 17.8035 4.102 18.6199C5.182 20.2129 7.391 21.8999 12 21.8999C16.609 21.8999 18.817 20.2139 19.899 18.6199C20.4495 17.8034 20.81 16.874 20.954 15.8999H20.953ZM11.645 6.75889C11.5976 6.80483 11.5513 6.85184 11.506 6.89989H15.494C15.4487 6.85184 15.4024 6.80483 15.355 6.75889C14.885 6.30189 14.253 5.89989 13.5 5.89989C12.747 5.89989 12.116 6.30189 11.645 6.75889Z" fill="#3D3B40"/>
</svg>
