<svg width="24" height="25" viewBox="0 0 24 25" fill="none" xmlns="http://www.w3.org/2000/svg">
<path fill-rule="evenodd" clip-rule="evenodd" d="M12.0001 2.4009C9.67058 2.39989 7.41394 3.21273 5.62016 4.69894C3.82638 6.18515 2.60818 8.25133 2.1761 10.5404C1.74403 12.8294 2.12523 15.1975 3.25383 17.2354C4.38242 19.2732 6.18749 20.8527 8.35705 21.7009C8.27105 20.9129 8.18905 19.6959 8.39305 18.8349C8.57305 18.0549 9.56505 13.8689 9.56505 13.8689C9.56505 13.8689 9.26805 13.2689 9.26805 12.3859C9.26805 10.9969 10.0751 9.9579 11.0761 9.9579C11.9291 9.9579 12.3431 10.5979 12.3431 11.3639C12.3431 12.2199 11.7971 13.5039 11.5131 14.6889C11.2731 15.6859 12.0091 16.4959 12.9921 16.4959C14.7681 16.4959 16.1341 14.6209 16.1341 11.9169C16.1341 9.5249 14.4111 7.8519 11.9591 7.8519C9.11405 7.8519 7.44605 9.9839 7.44605 12.1919C7.44605 13.0519 7.77505 13.9709 8.19105 14.4719C8.27105 14.5709 8.28605 14.6559 8.25805 14.7599C8.16705 15.1389 8.07305 15.5169 7.97805 15.8949C7.93405 16.0789 7.83405 16.1149 7.64505 16.0299C6.39505 15.4499 5.61705 13.6229 5.61705 12.1599C5.61705 9.0049 7.90705 6.1119 12.2211 6.1119C15.6881 6.1119 18.3851 8.5809 18.3851 11.8839C18.3851 15.3279 16.2121 18.1039 13.1951 18.1039C12.1811 18.1039 11.2301 17.5759 10.9051 16.9539L10.2821 19.3299C10.0571 20.1999 9.44905 21.2849 9.03905 21.9479C14.3121 23.5839 19.9141 20.6379 21.5511 15.3659C21.8491 14.4059 22.0011 13.4049 22.0001 12.3989C22.0021 6.8789 17.5271 2.4019 12.0051 2.3999H12.0011L11.9991 2.4009H12.0001Z" fill="#959199"/>
</svg>
