<svg width="17" height="17" viewBox="0 0 17 17" fill="none" xmlns="http://www.w3.org/2000/svg">
<path fill-rule="evenodd" clip-rule="evenodd" d="M4.30078 2.2998C3.63774 2.2998 3.00186 2.56319 2.53301 3.03203C2.06417 3.50087 1.80078 4.13676 1.80078 4.7998V11.7998C1.80078 12.4628 2.06417 13.0987 2.53301 13.5676C3.00186 14.0364 3.63774 14.2998 4.30078 14.2998H13.3008C13.9638 14.2998 14.5997 14.0364 15.0685 13.5676C15.5374 13.0987 15.8008 12.4628 15.8008 11.7998V4.7998C15.8008 4.13676 15.5374 3.50087 15.0685 3.03203C14.5997 2.56319 13.9638 2.2998 13.3008 2.2998H4.30078ZM7.80078 13.2998V11.7998C7.80078 11.6672 7.7481 11.54 7.65433 11.4462C7.56057 11.3525 7.43339 11.2998 7.30078 11.2998C7.16817 11.2998 7.041 11.3525 6.94723 11.4462C6.85346 11.54 6.80078 11.6672 6.80078 11.7998V13.2998H4.30078C3.90296 13.2998 3.52143 13.1418 3.24012 12.8605C2.95882 12.5792 2.80078 12.1976 2.80078 11.7998V8.2998H6.80078V8.7998C6.80078 8.93241 6.85346 9.05958 6.94723 9.15335C7.041 9.24712 7.16817 9.2998 7.30078 9.2998C7.43339 9.2998 7.56057 9.24712 7.65433 9.15335C7.7481 9.05958 7.80078 8.93241 7.80078 8.7998V6.7998C7.80078 6.66719 7.7481 6.54001 7.65433 6.44624C7.56057 6.35248 7.43339 6.2998 7.30078 6.2998C7.16817 6.2998 7.041 6.35248 6.94723 6.44624C6.85346 6.54001 6.80078 6.66719 6.80078 6.7998V7.2998H2.80078V4.7998C2.80078 4.40197 2.95882 4.02044 3.24012 3.73914C3.52143 3.45783 3.90296 3.2998 4.30078 3.2998H6.80078V3.7998C6.80078 3.93241 6.85346 4.05958 6.94723 4.15335C7.041 4.24712 7.16817 4.2998 7.30078 4.2998C7.43339 4.2998 7.56057 4.24712 7.65433 4.15335C7.7481 4.05958 7.80078 3.93241 7.80078 3.7998V3.2998H13.3008C13.6986 3.2998 14.0801 3.45783 14.3614 3.73914C14.6427 4.02044 14.8008 4.40197 14.8008 4.7998V6.2998H11.3008C11.1682 6.2998 11.041 6.35248 10.9472 6.44624C10.8535 6.54001 10.8008 6.66719 10.8008 6.7998C10.8008 6.93241 10.8535 7.05958 10.9472 7.15335C11.041 7.24712 11.1682 7.2998 11.3008 7.2998H14.8008V11.7998C14.8008 12.1976 14.6427 12.5792 14.3614 12.8605C14.0801 13.1418 13.6986 13.2998 13.3008 13.2998H7.80078Z" fill="#3D3B40"/>
</svg>
