<svg width="16" height="17" viewBox="0 0 16 17" fill="none" xmlns="http://www.w3.org/2000/svg">
<path d="M10 12.6001H6M8 12.6001V7.6001H6M8 15.6001C9.85652 15.6001 11.637 14.8626 12.9497 13.5498C14.2625 12.2371 15 10.4566 15 8.6001C15 6.74358 14.2625 4.9631 12.9497 3.65035C11.637 2.3376 9.85652 1.6001 8 1.6001C6.14348 1.6001 4.36301 2.3376 3.05025 3.65035C1.7375 4.9631 1 6.74358 1 8.6001C1 10.4566 1.7375 12.2371 3.05025 13.5498C4.36301 14.8626 6.14348 15.6001 8 15.6001ZM8 5.6001C8.13261 5.6001 8.25979 5.54742 8.35355 5.45365C8.44732 5.35988 8.5 5.23271 8.5 5.1001C8.5 4.96749 8.44732 4.84031 8.35355 4.74654C8.25979 4.65278 8.13261 4.6001 8 4.6001C7.86739 4.6001 7.74021 4.65278 7.64645 4.74654C7.55268 4.84031 7.5 4.96749 7.5 5.1001C7.5 5.23271 7.55268 5.35988 7.64645 5.45365C7.74021 5.54742 7.86739 5.6001 8 5.6001Z" stroke="#333F48" stroke-linecap="round" stroke-linejoin="round"/>
</svg>
