<svg width="24" height="25" viewBox="0 0 24 25" fill="none" xmlns="http://www.w3.org/2000/svg">
<path fill-rule="evenodd" clip-rule="evenodd" d="M3 4.30005H21C21.5304 4.30005 22.0391 4.51076 22.4142 4.88584C22.7893 5.26091 23 5.76962 23 6.30005V18.3C23 18.8305 22.7893 19.3392 22.4142 19.7143C22.0391 20.0893 21.5304 20.3 21 20.3H3C2.46957 20.3 1.96086 20.0893 1.58579 19.7143C1.21071 19.3392 1 18.8305 1 18.3V6.30005C1 5.76962 1.21071 5.26091 1.58579 4.88584C1.96086 4.51076 2.46957 4.30005 3 4.30005ZM15 12.3L9 16.3V8.30005L15 12.3Z" stroke="white" stroke-linecap="round" stroke-linejoin="round"/>
</svg>
