<svg width="24" height="25" viewBox="0 0 24 25" fill="none" xmlns="http://www.w3.org/2000/svg">
<path fill-rule="evenodd" clip-rule="evenodd" d="M7.14604 2.74601C7.19248 2.69945 7.24766 2.66251 7.30841 2.6373C7.36915 2.6121 7.43427 2.59912 7.50004 2.59912C7.56581 2.59912 7.63093 2.6121 7.69167 2.6373C7.75242 2.66251 7.80759 2.69945 7.85404 2.74601L17.354 12.246C17.4006 12.2925 17.4375 12.3476 17.4628 12.4084C17.488 12.4691 17.5009 12.5342 17.5009 12.6C17.5009 12.6658 17.488 12.7309 17.4628 12.7916C17.4375 12.8524 17.4006 12.9076 17.354 12.954L7.85404 22.454C7.80755 22.5005 7.75236 22.5374 7.69162 22.5625C7.63088 22.5877 7.56578 22.6006 7.50004 22.6006C7.4343 22.6006 7.36919 22.5877 7.30846 22.5625C7.24772 22.5374 7.19253 22.5005 7.14604 22.454C7.09955 22.4075 7.06267 22.3523 7.03752 22.2916C7.01236 22.2309 6.99941 22.1658 6.99941 22.1C6.99941 22.0343 7.01236 21.9692 7.03752 21.9084C7.06267 21.8477 7.09955 21.7925 7.14604 21.746L16.293 12.6L7.14604 3.45402C7.09948 3.40757 7.06253 3.35239 7.03733 3.29165C7.01212 3.2309 6.99915 3.16578 6.99915 3.10001C6.99915 3.03425 7.01212 2.96913 7.03733 2.90838C7.06253 2.84764 7.09948 2.79246 7.14604 2.74601Z" fill="#3D3B40"/>
</svg>
