<svg width="17" height="17" viewBox="0 0 17 17" fill="none" xmlns="http://www.w3.org/2000/svg">
<path fill-rule="evenodd" clip-rule="evenodd" d="M5.37541 1.74577C5.42185 1.69921 5.47703 1.66226 5.53778 1.63706C5.59852 1.61185 5.66364 1.59888 5.72941 1.59888C5.79518 1.59888 5.8603 1.61185 5.92104 1.63706C5.98179 1.66226 6.03696 1.69921 6.08341 1.74577L12.5834 8.24577C12.63 8.29222 12.6669 8.34739 12.6921 8.40814C12.7173 8.46888 12.7303 8.534 12.7303 8.59977C12.7303 8.66554 12.7173 8.73066 12.6921 8.7914C12.6669 8.85215 12.63 8.90732 12.5834 8.95377L6.08341 15.4538C6.03692 15.5003 5.98173 15.5371 5.92099 15.5623C5.86025 15.5875 5.79515 15.6004 5.72941 15.6004C5.66367 15.6004 5.59857 15.5875 5.53783 15.5623C5.47709 15.5371 5.4219 15.5003 5.37541 15.4538C5.32892 15.4073 5.29204 15.3521 5.26689 15.2914C5.24173 15.2306 5.22878 15.1655 5.22878 15.0998C5.22878 15.034 5.24173 14.9689 5.26689 14.9082C5.29204 14.8474 5.32892 14.7923 5.37541 14.7458L11.5224 8.59977L5.37541 2.45377C5.32885 2.40733 5.2919 2.35215 5.2667 2.2914C5.24149 2.23066 5.22852 2.16554 5.22852 2.09977C5.22852 2.034 5.24149 1.96888 5.2667 1.90814C5.2919 1.84739 5.32885 1.79222 5.37541 1.74577Z" fill="#3D3B40"/>
</svg>
