<svg width="24" height="25" viewBox="0 0 24 25" fill="none" xmlns="http://www.w3.org/2000/svg">
<path fill-rule="evenodd" clip-rule="evenodd" d="M20.587 4.67695C21.537 4.94795 22.287 5.72295 22.537 6.70295C23 8.48295 23 12.2 23 12.2C23 12.2 23 15.916 22.55 17.697C22.288 18.69 21.55 19.465 20.6 19.723C18.875 20.2 12 20.2 12 20.2C12 20.2 5.125 20.2 3.412 19.723C2.93869 19.5843 2.5098 19.3244 2.16778 18.9691C1.82576 18.6137 1.58247 18.1752 1.462 17.697C1 15.917 1 12.2 1 12.2C1 12.2 1 8.48395 1.45 6.70295C1.712 5.70995 2.45 4.93495 3.4 4.67695C5.125 4.19995 12 4.19995 12 4.19995C12 4.19995 18.875 4.19995 20.587 4.67695ZM15.5 12.2L9.75 15.58V8.81995L15.5 12.2Z" fill="white"/>
</svg>
