<svg width="17" height="16" viewBox="0 0 17 16" fill="none" xmlns="http://www.w3.org/2000/svg">
<path fill-rule="evenodd" clip-rule="evenodd" d="M5.65491 1.05293C5.71816 1.02125 5.78741 1.00336 5.85808 1.00043C5.92876 0.997499 5.99925 1.0096 6.06491 1.03593L10.8559 2.95193L13.5699 1.59493C13.7606 1.49961 13.9724 1.45462 14.1853 1.46424C14.3983 1.47387 14.6052 1.53778 14.7865 1.64991C14.9678 1.76204 15.1173 1.91867 15.221 2.1049C15.3247 2.29113 15.3791 2.50078 15.3789 2.71393V12.3449C15.3789 12.4843 15.3401 12.6209 15.2668 12.7394C15.1935 12.8579 15.0886 12.9537 14.9639 13.0159L11.1029 14.9469C11.0397 14.9786 10.9704 14.9965 10.8997 14.9994C10.8291 15.0024 10.7586 14.9903 10.6929 14.9639L5.90191 13.0479L3.18791 14.4049C2.99733 14.5002 2.78557 14.5452 2.57272 14.5356C2.35987 14.526 2.153 14.4622 1.97175 14.3502C1.79051 14.2382 1.6409 14.0817 1.53714 13.8956C1.43338 13.7095 1.37891 13.5 1.37891 13.2869V3.65493C1.37891 3.51557 1.41774 3.37897 1.49105 3.26045C1.56435 3.14193 1.66922 3.04617 1.79391 2.98393L5.65491 1.05293ZM5.90191 2.04793L2.37891 3.80893V13.2859C2.37882 13.3286 2.38966 13.3706 2.4104 13.4079C2.43113 13.4452 2.46107 13.4766 2.49736 13.499C2.53365 13.5215 2.57508 13.5343 2.61771 13.5362C2.66034 13.5381 2.70275 13.529 2.74091 13.5099L5.65491 12.0529C5.71816 12.0213 5.78741 12.0034 5.85808 12.0004C5.92876 11.9975 5.99925 12.0096 6.06491 12.0359L10.8559 13.9519L14.3789 12.1909V2.71393C14.379 2.67125 14.3681 2.62927 14.3474 2.59197C14.3267 2.55467 14.2967 2.5233 14.2605 2.50084C14.2242 2.47839 14.1827 2.4656 14.1401 2.46369C14.0975 2.46178 14.0551 2.47081 14.0169 2.48993L11.1029 3.94693C11.0397 3.9786 10.9704 3.9965 10.8997 3.99943C10.8291 4.00236 10.7586 3.99026 10.6929 3.96393L5.90191 2.04793ZM5.87891 3.99993C6.01151 3.99993 6.13869 3.94725 6.23246 3.85348C6.32623 3.75971 6.37891 3.63254 6.37891 3.49993C6.37891 3.36732 6.32623 3.24014 6.23246 3.14637C6.13869 3.05261 6.01151 2.99993 5.87891 2.99993C5.7463 2.99993 5.61912 3.05261 5.52535 3.14637C5.43158 3.24014 5.37891 3.36732 5.37891 3.49993C5.37891 3.63254 5.43158 3.75971 5.52535 3.85348C5.61912 3.94725 5.7463 3.99993 5.87891 3.99993ZM6.37891 5.49993C6.37891 5.63254 6.32623 5.75971 6.23246 5.85348C6.13869 5.94725 6.01151 5.99993 5.87891 5.99993C5.7463 5.99993 5.61912 5.94725 5.52535 5.85348C5.43158 5.75971 5.37891 5.63254 5.37891 5.49993C5.37891 5.36732 5.43158 5.24014 5.52535 5.14637C5.61912 5.05261 5.7463 4.99993 5.87891 4.99993C6.01151 4.99993 6.13869 5.05261 6.23246 5.14637C6.32623 5.24014 6.37891 5.36732 6.37891 5.49993ZM5.87891 7.99993C6.01151 7.99993 6.13869 7.94725 6.23246 7.85348C6.32623 7.75971 6.37891 7.63254 6.37891 7.49993C6.37891 7.36732 6.32623 7.24014 6.23246 7.14637C6.13869 7.05261 6.01151 6.99993 5.87891 6.99993C5.7463 6.99993 5.61912 7.05261 5.52535 7.14637C5.43158 7.24014 5.37891 7.36732 5.37891 7.49993C5.37891 7.63254 5.43158 7.75971 5.52535 7.85348C5.61912 7.94725 5.7463 7.99993 5.87891 7.99993ZM6.37891 9.49993C6.37891 9.63254 6.32623 9.75971 6.23246 9.85348C6.13869 9.94725 6.01151 9.99993 5.87891 9.99993C5.7463 9.99993 5.61912 9.94725 5.52535 9.85348C5.43158 9.75971 5.37891 9.63254 5.37891 9.49993C5.37891 9.36732 5.43158 9.24014 5.52535 9.14637C5.61912 9.05261 5.7463 8.99993 5.87891 8.99993C6.01151 8.99993 6.13869 9.05261 6.23246 9.14637C6.32623 9.24014 6.37891 9.36732 6.37891 9.49993ZM5.87891 11.9999C6.01151 11.9999 6.13869 11.9472 6.23246 11.8535C6.32623 11.7597 6.37891 11.6325 6.37891 11.4999C6.37891 11.3673 6.32623 11.2401 6.23246 11.1464C6.13869 11.0526 6.01151 10.9999 5.87891 10.9999C5.7463 10.9999 5.61912 11.0526 5.52535 11.1464C5.43158 11.2401 5.37891 11.3673 5.37891 11.4999C5.37891 11.6325 5.43158 11.7597 5.52535 11.8535C5.61912 11.9472 5.7463 11.9999 5.87891 11.9999ZM11.3789 4.49993C11.3789 4.63254 11.3262 4.75971 11.2325 4.85348C11.1387 4.94725 11.0115 4.99993 10.8789 4.99993C10.7463 4.99993 10.6191 4.94725 10.5254 4.85348C10.4316 4.75971 10.3789 4.63254 10.3789 4.49993C10.3789 4.36732 10.4316 4.24014 10.5254 4.14637C10.6191 4.05261 10.7463 3.99993 10.8789 3.99993C11.0115 3.99993 11.1387 4.05261 11.2325 4.14637C11.3262 4.24014 11.3789 4.36732 11.3789 4.49993ZM10.8789 6.99993C11.0115 6.99993 11.1387 6.94725 11.2325 6.85348C11.3262 6.75971 11.3789 6.63254 11.3789 6.49993C11.3789 6.36732 11.3262 6.24014 11.2325 6.14637C11.1387 6.05261 11.0115 5.99993 10.8789 5.99993C10.7463 5.99993 10.6191 6.05261 10.5254 6.14637C10.4316 6.24014 10.3789 6.36732 10.3789 6.49993C10.3789 6.63254 10.4316 6.75971 10.5254 6.85348C10.6191 6.94725 10.7463 6.99993 10.8789 6.99993ZM11.3789 8.49993C11.3789 8.63254 11.3262 8.75971 11.2325 8.85348C11.1387 8.94725 11.0115 8.99993 10.8789 8.99993C10.7463 8.99993 10.6191 8.94725 10.5254 8.85348C10.4316 8.75971 10.3789 8.63254 10.3789 8.49993C10.3789 8.36732 10.4316 8.24014 10.5254 8.14637C10.6191 8.05261 10.7463 7.99993 10.8789 7.99993C11.0115 7.99993 11.1387 8.05261 11.2325 8.14637C11.3262 8.24014 11.3789 8.36732 11.3789 8.49993ZM10.8789 10.9999C11.0115 10.9999 11.1387 10.9472 11.2325 10.8535C11.3262 10.7597 11.3789 10.6325 11.3789 10.4999C11.3789 10.3673 11.3262 10.2401 11.2325 10.1464C11.1387 10.0526 11.0115 9.99993 10.8789 9.99993C10.7463 9.99993 10.6191 10.0526 10.5254 10.1464C10.4316 10.2401 10.3789 10.3673 10.3789 10.4999C10.3789 10.6325 10.4316 10.7597 10.5254 10.8535C10.6191 10.9472 10.7463 10.9999 10.8789 10.9999ZM11.3789 12.4999C11.3789 12.6325 11.3262 12.7597 11.2325 12.8535C11.1387 12.9472 11.0115 12.9999 10.8789 12.9999C10.7463 12.9999 10.6191 12.9472 10.5254 12.8535C10.4316 12.7597 10.3789 12.6325 10.3789 12.4999C10.3789 12.3673 10.4316 12.2401 10.5254 12.1464C10.6191 12.0526 10.7463 11.9999 10.8789 11.9999C11.0115 11.9999 11.1387 12.0526 11.2325 12.1464C11.3262 12.2401 11.3789 12.3673 11.3789 12.4999Z" fill="#3D3B40"/>
</svg>
