<svg width="17" height="17" viewBox="0 0 17 17" fill="none" xmlns="http://www.w3.org/2000/svg">
<path fill-rule="evenodd" clip-rule="evenodd" d="M13.0996 9.6001V4.1001C13.0996 3.43706 12.8362 2.80117 12.3674 2.33233C11.8985 1.86349 11.2627 1.6001 10.5996 1.6001C9.93657 1.6001 9.30068 1.86349 8.83184 2.33233C8.363 2.80117 8.09961 3.43706 8.09961 4.1001V4.6001L8.10061 4.6391C7.73661 4.6981 7.42661 4.8231 7.16561 4.9961C6.79661 5.2431 6.55661 5.5671 6.40261 5.8761C6.22013 6.24566 6.11692 6.6493 6.09961 7.0611V7.0861V7.0951V7.0991C6.09961 7.23171 6.15229 7.35988 6.24606 7.45365C6.33982 7.54742 6.467 7.6001 6.59961 7.6001H10.5996C10.7322 7.6001 10.8594 7.54742 10.9532 7.45365C11.0469 7.35988 11.0996 7.23271 11.0996 7.1001V7.0601L11.0946 6.9771C11.0678 6.59389 10.9666 6.21958 10.7966 5.8751C10.6238 5.51998 10.3606 5.21652 10.0336 4.9951C9.75128 4.81017 9.43234 4.6884 9.09861 4.6381C9.09942 4.62545 9.09975 4.61277 9.09961 4.6001V4.1001C9.09961 3.70227 9.25764 3.32074 9.53895 3.03944C9.82025 2.75813 10.2018 2.6001 10.5996 2.6001C10.9974 2.6001 11.379 2.75813 11.6603 3.03944C11.9416 3.32074 12.0996 3.70227 12.0996 4.1001V9.6001H2.09961C1.967 9.6001 1.83982 9.65278 1.74606 9.74654C1.65229 9.84031 1.59961 9.96749 1.59961 10.1001V10.1241C1.60077 10.1913 1.60578 10.2584 1.61461 10.3251C1.62761 10.4551 1.65461 10.6341 1.70861 10.8461C1.81461 11.2711 2.02661 11.8361 2.44961 12.4001C2.90661 13.0101 3.58761 13.5901 4.58961 14.0011L4.15261 14.8761C4.09442 14.9945 4.08538 15.1311 4.12748 15.2562C4.16957 15.3812 4.25938 15.4845 4.37734 15.5436C4.49529 15.6028 4.63183 15.6129 4.75719 15.5717C4.88256 15.5306 4.98659 15.4416 5.04661 15.3241L5.54661 14.3241L5.55161 14.3141C6.26861 14.4941 7.11161 14.6001 8.09961 14.6001C9.08861 14.6001 9.93061 14.4951 10.6476 14.3151C10.6492 14.3181 10.6509 14.3211 10.6526 14.3241L11.1526 15.3241C11.1817 15.3833 11.2223 15.4362 11.2719 15.4797C11.3215 15.5232 11.3793 15.5564 11.4418 15.5774C11.5044 15.5985 11.5704 15.6069 11.6363 15.6023C11.7021 15.5977 11.7664 15.5801 11.8254 15.5506C11.8843 15.521 11.9369 15.4801 11.98 15.4301C12.0231 15.3801 12.0559 15.3221 12.0764 15.2594C12.097 15.1967 12.105 15.1306 12.0998 15.0648C12.0947 14.999 12.0766 14.9349 12.0466 14.8761L11.6096 14.0011C12.6116 13.5901 13.2926 13.0091 13.7496 12.4001C14.0975 11.9365 14.3494 11.4082 14.4906 10.8461C14.5463 10.6244 14.5821 10.3982 14.5976 10.1701L14.5996 10.1241V10.1001C14.5996 9.96749 14.5469 9.84031 14.4532 9.74654C14.3594 9.65278 14.2322 9.6001 14.0996 9.6001H13.0996ZM10.0116 6.6001C9.98264 6.50521 9.94584 6.4129 9.90161 6.3241C9.80657 6.12478 9.66067 5.95405 9.47861 5.8291C9.28861 5.7021 9.01261 5.6001 8.59961 5.6001C8.18661 5.6001 7.91061 5.7021 7.72061 5.8291C7.53818 5.95391 7.39192 6.12466 7.29661 6.3241C7.25237 6.4129 7.21558 6.50521 7.18661 6.6001H10.0126H10.0116ZM2.67761 10.6001V10.6041C2.75961 10.9291 2.92261 11.3641 3.24961 11.8001C3.88561 12.6481 5.22161 13.6001 8.09961 13.6001C10.9776 13.6001 12.3136 12.6481 12.9496 11.8001C13.2766 11.3641 13.4396 10.9291 13.5206 10.6041L13.5216 10.6001H2.67761Z" fill="#3D3B40"/>
</svg>
