<svg width="24" height="25" viewBox="0 0 24 25" fill="none" xmlns="http://www.w3.org/2000/svg">
<path fill-rule="evenodd" clip-rule="evenodd" d="M5.86231 22.4172C5.70897 22.3091 5.58911 22.1601 5.51643 21.9872C5.44376 21.8142 5.42119 21.6243 5.45131 21.4392L6.43131 15.4252L2.28431 11.1742C2.15589 11.0426 2.06623 10.8781 2.02521 10.6989C1.98418 10.5196 1.99337 10.3325 2.05177 10.1582C2.11016 9.98382 2.2155 9.82894 2.35621 9.71056C2.49691 9.59218 2.66753 9.51488 2.84931 9.48717L8.54031 8.61717L11.0953 3.17517C11.1761 3.00338 11.3041 2.85812 11.4643 2.75637C11.6246 2.65462 11.8105 2.60059 12.0003 2.60059C12.1901 2.60059 12.3761 2.65462 12.5363 2.75637C12.6966 2.85812 12.8246 3.00338 12.9053 3.17517L15.4603 8.61717L21.1513 9.48717C21.3331 9.51488 21.5037 9.59218 21.6444 9.71056C21.7851 9.82894 21.8905 9.98382 21.9489 10.1582C22.0072 10.3325 22.0164 10.5196 21.9754 10.6989C21.9344 10.8781 21.8447 11.0426 21.7163 11.1742L17.5683 15.4242L18.5493 21.4392C18.5794 21.6243 18.5568 21.8141 18.4841 21.987C18.4114 22.1599 18.2916 22.3089 18.1383 22.4169C17.985 22.525 17.8044 22.5877 17.6172 22.598C17.4299 22.6083 17.2435 22.5657 17.0793 22.4752L12.0003 19.6682L6.92131 22.4752C6.757 22.566 6.57044 22.6087 6.38298 22.5984C6.19552 22.5882 6.01574 22.5254 5.86231 22.4172ZM12.0003 18.5252L16.4493 20.9852L17.5623 21.6002L17.3573 20.3442L16.5003 15.0882L20.1413 11.3562L21.0003 10.4762L19.7843 10.2902L14.7813 9.52517L12.5523 4.77717L12.0003 3.60017L11.4483 4.77717L9.21831 9.52517L4.21631 10.2902L3.00031 10.4752L3.85931 11.3552L7.50031 15.0882L6.64331 20.3452L6.43831 21.6002L7.55131 20.9842L12.0003 18.5252Z" fill="#3D3B40"/>
</svg>
