<svg width="16" height="17" viewBox="0 0 16 17" fill="none" xmlns="http://www.w3.org/2000/svg">
<path fill-rule="evenodd" clip-rule="evenodd" d="M7.64663 3.04582C7.69308 2.99926 7.74825 2.96231 7.809 2.93711C7.86974 2.9119 7.93486 2.89893 8.00063 2.89893C8.0664 2.89893 8.13152 2.9119 8.19226 2.93711C8.25301 2.96231 8.30819 2.99926 8.35463 3.04582L13.3546 8.04582C13.4485 8.13971 13.5013 8.26704 13.5013 8.39982C13.5013 8.5326 13.4485 8.65993 13.3546 8.75382C13.2607 8.84771 13.1334 8.90045 13.0006 8.90045C12.8679 8.90045 12.7405 8.84771 12.6466 8.75382L8.50063 4.60682V14.3998C8.50063 14.5324 8.44795 14.6596 8.35419 14.7534C8.26042 14.8471 8.13324 14.8998 8.00063 14.8998C7.86802 14.8998 7.74085 14.8471 7.64708 14.7534C7.55331 14.6596 7.50063 14.5324 7.50063 14.3998V4.60682L3.35463 8.75382C3.26075 8.84771 3.13341 8.90045 3.00063 8.90045C2.86786 8.90045 2.74052 8.84771 2.64663 8.75382C2.55274 8.65993 2.5 8.5326 2.5 8.39982C2.5 8.26704 2.55274 8.13971 2.64663 8.04582L7.64663 3.04582Z" fill="#3D3B40"/>
</svg>
