<svg width="16" height="17" viewBox="0 0 16 17" fill="none" xmlns="http://www.w3.org/2000/svg">
<path fill-rule="evenodd" clip-rule="evenodd" d="M6.99997 1.79999C6.03448 1.80004 5.08327 2.03309 4.2271 2.47934C3.37093 2.92559 2.63509 3.57186 2.08208 4.36327C1.52906 5.15469 1.17519 6.06787 1.05053 7.02527C0.925869 7.98268 1.03409 8.95603 1.36601 9.86267C1.69792 10.7693 2.24373 11.5825 2.95707 12.2331C3.67042 12.8837 4.53024 13.3526 5.46352 13.5998C6.3968 13.8471 7.37598 13.8655 8.3179 13.6535C9.25982 13.4415 10.1367 13.0053 10.874 12.382L14.146 15.654C14.2399 15.7479 14.3672 15.8006 14.5 15.8006C14.6327 15.8006 14.7601 15.7479 14.854 15.654C14.9479 15.5601 15.0006 15.4328 15.0006 15.3C15.0006 15.1672 14.9479 15.0399 14.854 14.946L11.582 11.674C12.3207 10.8003 12.7942 9.73373 12.9467 8.59987C13.0992 7.466 12.9244 6.31217 12.4428 5.27439C11.9612 4.23661 11.193 3.35815 10.2286 2.74256C9.26429 2.12698 8.14405 1.79993 6.99997 1.79999ZM1.99997 7.79999C1.99997 6.47391 2.52675 5.20214 3.46444 4.26445C4.40212 3.32677 5.67389 2.79999 6.99997 2.79999C8.32605 2.79999 9.59782 3.32677 10.5355 4.26445C11.4732 5.20214 12 6.47391 12 7.79999C12 9.12607 11.4732 10.3978 10.5355 11.3355C9.59782 12.2732 8.32605 12.8 6.99997 12.8C5.67389 12.8 4.40212 12.2732 3.46444 11.3355C2.52675 10.3978 1.99997 9.12607 1.99997 7.79999Z" fill="#726E75"/>
</svg>
