<svg width="17" height="17" viewBox="0 0 17 17" fill="none" xmlns="http://www.w3.org/2000/svg">
<path fill-rule="evenodd" clip-rule="evenodd" d="M4.66642 1.74577C4.71287 1.69921 4.76805 1.66226 4.82879 1.63706C4.88954 1.61185 4.95466 1.59888 5.02042 1.59888C5.08619 1.59888 5.15131 1.61185 5.21206 1.63706C5.2728 1.66226 5.32798 1.69921 5.37442 1.74577L11.8744 8.24577C11.921 8.29222 11.9579 8.34739 11.9831 8.40814C12.0083 8.46888 12.0213 8.534 12.0213 8.59977C12.0213 8.66554 12.0083 8.73066 11.9831 8.7914C11.9579 8.85215 11.921 8.90732 11.8744 8.95377L5.37442 15.4538C5.32794 15.5003 5.27275 15.5371 5.21201 15.5623C5.15127 15.5875 5.08617 15.6004 5.02042 15.6004C4.95468 15.6004 4.88958 15.5875 4.82884 15.5623C4.7681 15.5371 4.71291 15.5003 4.66642 15.4538C4.61994 15.4073 4.58306 15.3521 4.5579 15.2914C4.53274 15.2306 4.51979 15.1655 4.51979 15.0998C4.51979 15.034 4.53274 14.9689 4.5579 14.9082C4.58306 14.8474 4.61994 14.7923 4.66642 14.7458L10.8134 8.59977L4.66642 2.45377C4.61986 2.40733 4.58292 2.35215 4.55771 2.2914C4.53251 2.23066 4.51953 2.16554 4.51953 2.09977C4.51953 2.034 4.53251 1.96888 4.55771 1.90814C4.58292 1.84739 4.61986 1.79222 4.66642 1.74577Z" fill="#3D3B40"/>
</svg>
