<svg width="16" height="16" viewBox="0 0 16 16" fill="none" xmlns="http://www.w3.org/2000/svg">
<path fill-rule="evenodd" clip-rule="evenodd" d="M6.99967 1C6.03418 1.00005 5.08296 1.2331 4.22679 1.67935C3.37062 2.1256 2.63479 2.77187 2.08177 3.56328C1.52875 4.3547 1.17489 5.26788 1.05023 6.22529C0.925564 7.18269 1.03378 8.15604 1.3657 9.06268C1.69762 9.96932 2.24342 10.7825 2.95677 11.4331C3.67012 12.0837 4.52994 12.5526 5.46322 12.7999C6.3965 13.0471 7.37567 13.0656 8.31759 12.8535C9.25951 12.6415 10.1364 12.2053 10.8737 11.582L14.1457 14.854C14.2396 14.9479 14.3669 15.0006 14.4997 15.0006C14.6324 15.0006 14.7598 14.9479 14.8537 14.854C14.9476 14.7601 15.0003 14.6328 15.0003 14.5C15.0003 14.3672 14.9476 14.2399 14.8537 14.146L11.5817 10.874C12.3204 10.0004 12.7939 8.93374 12.9464 7.79988C13.0989 6.66602 12.9241 5.51218 12.4425 4.4744C11.9609 3.43662 11.1927 2.55816 10.2283 1.94257C9.26398 1.32699 8.14374 0.999946 6.99967 1ZM1.99967 7C1.99967 5.67392 2.52645 4.40215 3.46413 3.46447C4.40181 2.52678 5.67358 2 6.99967 2C8.32575 2 9.59752 2.52678 10.5352 3.46447C11.4729 4.40215 11.9997 5.67392 11.9997 7C11.9997 8.32608 11.4729 9.59785 10.5352 10.5355C9.59752 11.4732 8.32575 12 6.99967 12C5.67358 12 4.40181 11.4732 3.46413 10.5355C2.52645 9.59785 1.99967 8.32608 1.99967 7Z" fill="#3D3B40"/>
</svg>
